<svg width="23" height="24" viewBox="0 0 23 24" fill="none" xmlns="http://www.w3.org/2000/svg">
<path fill-rule="evenodd" clip-rule="evenodd" d="M3.88063 1.33325H19.1187C19.927 1.33325 20.7022 1.65434 21.2737 2.22588C21.8453 2.79742 22.1663 3.57259 22.1663 4.38087V19.619C22.1663 20.4272 21.8453 21.2024 21.2737 21.774C20.7022 22.3455 19.927 22.6666 19.1187 22.6666H3.88063C3.07235 22.6666 2.29717 22.3455 1.72563 21.774C1.1541 21.2024 0.833008 20.4272 0.833008 19.619V4.38087C0.833008 3.57259 1.1541 2.79742 1.72563 2.22588C2.29717 1.65434 3.07235 1.33325 3.88063 1.33325Z" stroke="#333333" stroke-linecap="round" stroke-linejoin="round"/>
<path d="M6.92871 12L9.97633 15.0476L16.0716 8.95239" stroke="#333333" stroke-linecap="round" stroke-linejoin="round"/>
</svg>
