<svg xmlns="http://www.w3.org/2000/svg" aria-hidden="true" style="position:absolute;width:0;height:0;overflow:hidden">
    <defs>
        <!-- moon-icon -->
        <symbol id="moon" viewBox="0 0 32 32">
            <path fill="none" stroke="" style="" stroke-linejoin="round" stroke-linecap="round" stroke-miterlimit="4" stroke-width="2.9091" d="M13.688 17.091c-4.477-4.263-5.373-10.517-2.986-15.637-1.789 0.568-3.281 1.705-4.772 3.127-1.418 1.34-2.544 2.935-3.312 4.691s-1.164 3.641-1.164 5.544c0 1.903 0.395 3.788 1.164 5.544s1.894 3.351 3.312 4.692c5.967 5.686 15.215 5.402 21.181-0.284 1.492-1.422 2.685-2.843 3.281-4.55-5.667 1.991-12.231 1.137-16.707-3.127l0.003-0.001z"></path>
        </symbol>

        <!-- sun-icon -->
        <symbol id="sun" viewBox="6 6 21 21">
            <path
                d="M16.529 22v0c-3.038 0-5.5-2.462-5.5-5.5s2.462-5.5 5.5-5.5c3.038 0 5.5 2.462 5.5 5.5s-2.462 5.5-5.5 5.5zM16.529 21c2.485 0 4.5-2.015 4.5-4.5s-2.015-4.5-4.5-4.5c-2.485 0-4.5 2.015-4.5 4.5s2.015 4.5 4.5 4.5v0zM16.529 7c-0.276 0-0.5 0.216-0.5 0.495v2.009c0 0.274 0.232 0.495 0.5 0.495 0.276 0 0.5-0.216 0.5-0.495v-2.009c0-0.274-0.232-0.495-0.5-0.495v0zM23.267 9.791c-0.195-0.195-0.506-0.201-0.704-0.003l-1.421 1.421c-0.193 0.193-0.186 0.514 0.003 0.704 0.195 0.195 0.506 0.201 0.704 0.003l1.421-1.421c0.193-0.193 0.186-0.514-0.003-0.704v0zM26.058 16.529c0-0.276-0.216-0.5-0.495-0.5h-2.009c-0.274 0-0.495 0.232-0.495 0.5 0 0.276 0.216 0.5 0.495 0.5h2.009c0.274 0 0.495-0.232 0.495-0.5v0zM23.267 23.267c0.195-0.195 0.201-0.506 0.003-0.704l-1.421-1.421c-0.193-0.193-0.514-0.186-0.704 0.003-0.195 0.195-0.201 0.506-0.003 0.704l1.421 1.421c0.193 0.193 0.514 0.186 0.704-0.003v0zM16.529 26.058c0.276 0 0.5-0.216 0.5-0.495v-2.009c0-0.274-0.232-0.495-0.5-0.495-0.276 0-0.5 0.216-0.5 0.495v2.009c0 0.274 0.232 0.495 0.5 0.495v0zM9.791 23.267c0.195 0.195 0.506 0.201 0.704 0.003l1.421-1.421c0.193-0.193 0.186-0.514-0.003-0.704-0.195-0.195-0.506-0.201-0.704-0.003l-1.421 1.421c-0.193 0.193-0.186 0.514 0.003 0.704v0zM7 16.529c0 0.276 0.216 0.5 0.495 0.5h2.009c0.274 0 0.495-0.232 0.495-0.5 0-0.276-0.216-0.5-0.495-0.5h-2.009c-0.274 0-0.495 0.232-0.495 0.5v0zM9.791 9.791c-0.195 0.195-0.201 0.506-0.003 0.704l1.421 1.421c0.193 0.193 0.514 0.186 0.704-0.003 0.195-0.195 0.201-0.506 0.003-0.704l-1.421-1.421c-0.193-0.193-0.514-0.186-0.704 0.003v0z">
            </path>
        </symbol>

        <!-- arrow-down -->
        <symbol id="icon-arrow-down" viewBox="0 0 32 32">
            <path fill="none" stroke-linejoin="round" stroke-linecap="round" stroke-miterlimit="4" stroke-width="3.2" d="M2.133 2.133l27.733 27.733M29.867 29.867v-26.624M29.867 29.867h-26.624"></path>
        </symbol>

        <!-- arrow-up -->
        <symbol id="icon-arrow-up" viewBox="0 0 32 32">
            <path  d="M2.462 0v4.923h21.145l-23.606 23.606 3.471 3.471 23.606-23.606v21.145h4.923v-29.538h-29.538z"></path>
        </symbol>

        <!-- arrow-right -->        
        <symbol id="icon-arrow-right" viewBox="0 0 17 12">
            <path d="M10.3616 0L16.5 5.99997L15.5111 6.9666L15.5039 6.95955L10.3471 12L9.35822 11.0334L13.8084 6.6835H0.5V5.31648H13.8229L9.37272 0.96663L10.3616 0Z"></path>
        </symbol>
    </defs>
</svg>
