<svg xmlns="http://www.w3.org/2000/svg" aria-hidden="true" style="position:absolute;width:0;height:0;overflow:hidden">
    <defs>
        <!-- moon-icon -->
        <symbol id="moon" viewBox="0 0 32 32">
            <path fill="none" stroke="" style="" stroke-linejoin="round" stroke-linecap="round" stroke-miterlimit="4" stroke-width="2.9091" d="M13.688 17.091c-4.477-4.263-5.373-10.517-2.986-15.637-1.789 0.568-3.281 1.705-4.772 3.127-1.418 1.34-2.544 2.935-3.312 4.691s-1.164 3.641-1.164 5.544c0 1.903 0.395 3.788 1.164 5.544s1.894 3.351 3.312 4.692c5.967 5.686 15.215 5.402 21.181-0.284 1.492-1.422 2.685-2.843 3.281-4.55-5.667 1.991-12.231 1.137-16.707-3.127l0.003-0.001z"></path>
        </symbol>

        <!-- sun-icon -->
        <symbol id="sun" viewBox="6 6 21 21">
            <path
                d="M16.529 22v0c-3.038 0-5.5-2.462-5.5-5.5s2.462-5.5 5.5-5.5c3.038 0 5.5 2.462 5.5 5.5s-2.462 5.5-5.5 5.5zM16.529 21c2.485 0 4.5-2.015 4.5-4.5s-2.015-4.5-4.5-4.5c-2.485 0-4.5 2.015-4.5 4.5s2.015 4.5 4.5 4.5v0zM16.529 7c-0.276 0-0.5 0.216-0.5 0.495v2.009c0 0.274 0.232 0.495 0.5 0.495 0.276 0 0.5-0.216 0.5-0.495v-2.009c0-0.274-0.232-0.495-0.5-0.495v0zM23.267 9.791c-0.195-0.195-0.506-0.201-0.704-0.003l-1.421 1.421c-0.193 0.193-0.186 0.514 0.003 0.704 0.195 0.195 0.506 0.201 0.704 0.003l1.421-1.421c0.193-0.193 0.186-0.514-0.003-0.704v0zM26.058 16.529c0-0.276-0.216-0.5-0.495-0.5h-2.009c-0.274 0-0.495 0.232-0.495 0.5 0 0.276 0.216 0.5 0.495 0.5h2.009c0.274 0 0.495-0.232 0.495-0.5v0zM23.267 23.267c0.195-0.195 0.201-0.506 0.003-0.704l-1.421-1.421c-0.193-0.193-0.514-0.186-0.704 0.003-0.195 0.195-0.201 0.506-0.003 0.704l1.421 1.421c0.193 0.193 0.514 0.186 0.704-0.003v0zM16.529 26.058c0.276 0 0.5-0.216 0.5-0.495v-2.009c0-0.274-0.232-0.495-0.5-0.495-0.276 0-0.5 0.216-0.5 0.495v2.009c0 0.274 0.232 0.495 0.5 0.495v0zM9.791 23.267c0.195 0.195 0.506 0.201 0.704 0.003l1.421-1.421c0.193-0.193 0.186-0.514-0.003-0.704-0.195-0.195-0.506-0.201-0.704-0.003l-1.421 1.421c-0.193 0.193-0.186 0.514 0.003 0.704v0zM7 16.529c0 0.276 0.216 0.5 0.495 0.5h2.009c0.274 0 0.495-0.232 0.495-0.5 0-0.276-0.216-0.5-0.495-0.5h-2.009c-0.274 0-0.495 0.232-0.495 0.5v0zM9.791 9.791c-0.195 0.195-0.201 0.506-0.003 0.704l1.421 1.421c0.193 0.193 0.514 0.186 0.704-0.003 0.195-0.195 0.201-0.506 0.003-0.704l-1.421-1.421c-0.193-0.193-0.514-0.186-0.704 0.003v0z">
            </path>
        </symbol>

        <!-- arrow-down -->
        <symbol id="icon-arrow-down" viewBox="0 0 32 32">
            <path fill="none" stroke-linejoin="round" stroke-linecap="round" stroke-miterlimit="4" stroke-width="3.2" d="M2.133 2.133l27.733 27.733M29.867 29.867v-26.624M29.867 29.867h-26.624"></path>
        </symbol>

        <!-- arrow-up -->
        <symbol id="icon-arrow-up" viewBox="0 0 32 32">
            <path  d="M2.462 0v4.923h21.145l-23.606 23.606 3.471 3.471 23.606-23.606v21.145h4.923v-29.538h-29.538z"></path>
        </symbol>

        <!-- arrow-right -->        
        <symbol id="icon-arrow-right" viewBox="0 0 17 12">
            <path d="M10.3616 0L16.5 5.99997L15.5111 6.9666L15.5039 6.95955L10.3471 12L9.35822 11.0334L13.8084 6.6835H0.5V5.31648H13.8229L9.37272 0.96663L10.3616 0Z"></path>
        </symbol>

        <!-- arrow-header-right -->        
        <symbol id="icon-header-arrow-right"  viewBox="0 0 16 12" >
           <path d="M9.86164 0L16 5.99997L15.0111 6.9666L15.0039 6.95955L9.84715 12L8.85822 11.0334L13.3084 6.6835H0V5.31648H13.3229L8.87272 0.96663L9.86164 0Z"></path>
        </symbol>


        <!-- linkedin -->        
        <symbol id="linkedin" viewBox="0 0 30 30">        
            <path d="M26.6667 0C27.5507 0 28.3986 0.351189 29.0237 0.976311C29.6488 1.60143 30 2.44928 30 3.33333V26.6667C30 27.5507 29.6488 28.3986 29.0237 29.0237C28.3986 29.6488 27.5507 30 26.6667 30H3.33333C2.44928 30 1.60143 29.6488 0.976311 29.0237C0.351189 28.3986 0 27.5507 0 26.6667V3.33333C0 2.44928 0.351189 1.60143 0.976311 0.976311C1.60143 0.351189 2.44928 0 3.33333 0H26.6667ZM25.8333 25.8333V17C25.8333 15.559 25.2609 14.177 24.2419 13.1581C23.223 12.1391 21.841 11.5667 20.4 11.5667C18.9833 11.5667 17.3333 12.4333 16.5333 13.7333V11.8833H11.8833V25.8333H16.5333V17.6167C16.5333 16.3333 17.5667 15.2833 18.85 15.2833C19.4688 15.2833 20.0623 15.5292 20.4999 15.9668C20.9375 16.4043 21.1833 16.9978 21.1833 17.6167V25.8333H25.8333ZM6.46667 9.26667C7.20927 9.26667 7.92146 8.97167 8.44657 8.44657C8.97167 7.92146 9.26667 7.20927 9.26667 6.46667C9.26667 4.91667 8.01667 3.65 6.46667 3.65C5.71964 3.65 5.00321 3.94675 4.47498 4.47498C3.94675 5.00321 3.65 5.71964 3.65 6.46667C3.65 8.01667 4.91667 9.26667 6.46667 9.26667ZM8.78333 25.8333V11.8833H4.16667V25.8333H8.78333Z"></path>
        </symbol>

        <!-- facebook -->        
        <symbol id="facebook" viewBox="0 0 30 30">        
            <path d="M25.5755 0H4.42233C1.99005 0 0 1.99005 0 4.42233V25.5777C0 28.01 1.99005 30 4.42233 30H25.5777C28.01 30 30 28.01 30 25.5777V4.42233C29.9978 1.99005 28.0099 0 25.5755 0ZM25.2913 16.0122H21.7313V28.8922H16.4046V16.0122H13.7402V11.5721H16.4046V8.90768C16.4046 5.28579 17.9082 3.13101 22.1868 3.13101H25.7435V7.56993H23.5191C21.8563 7.56993 21.7457 8.19237 21.7457 9.34992L21.7313 11.5721H25.7612L25.2913 16.0122Z"></path>
        </symbol>

        <!-- instagram -->        
        <symbol id="instagram" viewBox="0 0 30 30">        
            <path d="M8.7 0H21.3C26.1 0 30 3.9 30 8.7V21.3C30 23.6074 29.0834 25.8203 27.4518 27.4518C25.8203 29.0834 23.6074 30 21.3 30H8.7C3.9 30 0 26.1 0 21.3V8.7C0 6.39262 0.916605 4.17974 2.54817 2.54817C4.17974 0.916605 6.39262 0 8.7 0ZM8.4 3C6.96783 3 5.59432 3.56893 4.58162 4.58162C3.56893 5.59432 3 6.96783 3 8.4V21.6C3 24.585 5.415 27 8.4 27H21.6C23.0322 27 24.4057 26.4311 25.4184 25.4184C26.4311 24.4057 27 23.0322 27 21.6V8.4C27 5.415 24.585 3 21.6 3H8.4ZM22.875 5.25C23.3723 5.25 23.8492 5.44754 24.2008 5.79917C24.5525 6.15081 24.75 6.62772 24.75 7.125C24.75 7.62228 24.5525 8.09919 24.2008 8.45082C23.8492 8.80246 23.3723 9 22.875 9C22.3777 9 21.9008 8.80246 21.5492 8.45082C21.1975 8.09919 21 7.62228 21 7.125C21 6.62772 21.1975 6.15081 21.5492 5.79917C21.9008 5.44754 22.3777 5.25 22.875 5.25ZM15 7.5C16.9891 7.5 18.8968 8.29018 20.3033 9.6967C21.7098 11.1032 22.5 13.0109 22.5 15C22.5 16.9891 21.7098 18.8968 20.3033 20.3033C18.8968 21.7098 16.9891 22.5 15 22.5C13.0109 22.5 11.1032 21.7098 9.6967 20.3033C8.29018 18.8968 7.5 16.9891 7.5 15C7.5 13.0109 8.29018 11.1032 9.6967 9.6967C11.1032 8.29018 13.0109 7.5 15 7.5ZM15 10.5C13.8065 10.5 12.6619 10.9741 11.818 11.818C10.9741 12.6619 10.5 13.8065 10.5 15C10.5 16.1935 10.9741 17.3381 11.818 18.182C12.6619 19.0259 13.8065 19.5 15 19.5C16.1935 19.5 17.3381 19.0259 18.182 18.182C19.0259 17.3381 19.5 16.1935 19.5 15C19.5 13.8065 19.0259 12.6619 18.182 11.818C17.3381 10.9741 16.1935 10.5 15 10.5Z"></path>
        </symbol>

        <!-- telegram -->        
        <symbol id="telegram" viewBox="0 0 38 33">        
            <path d="M36.4205 0.61895C36.1407 0.37762 35.8003 0.217205 35.4361 0.154981C35.0718 0.0927563 34.6975 0.13108 34.3534 0.265825L2.68773 12.658C2.113 12.8819 1.6265 13.2863 1.30145 13.8105C0.976397 14.3347 0.830377 14.9502 0.885361 15.5646C0.940344 16.1789 1.19336 16.7588 1.60633 17.2169C2.01929 17.675 2.56988 17.9867 3.17523 18.1049L10.8752 19.6158V28.2502C10.8752 28.8732 11.0614 29.4819 11.4099 29.9983C11.7583 30.5147 12.2532 30.9152 12.8309 31.1483C13.4086 31.3814 14.0429 31.4365 14.6521 31.3065C15.2614 31.1766 15.8179 30.8675 16.2502 30.4189L19.7924 26.7455L25.6174 31.8439C26.0238 32.2013 26.5159 32.447 27.0457 32.557C27.5755 32.6671 28.1248 32.6376 28.6398 32.4716C29.1549 32.3056 29.6179 32.0087 29.9838 31.61C30.3496 31.2113 30.6056 30.7244 30.7268 30.1971L37.0737 2.61114C37.1563 2.25107 37.1391 1.8753 37.024 1.52427C36.9089 1.17324 36.7003 0.860235 36.4205 0.61895ZM22.033 9.1127L12.3159 16.0768L6.93617 15.0221L22.033 9.1127ZM14.6252 26.6971V22.2111L16.969 24.2658L14.6252 26.6971ZM27.3065 28.3408L15.7627 18.2205L32.3737 6.31739L27.3065 28.3408Z"></path>
        </symbol>
    </defs>
</svg>
