<svg xmlns="http://www.w3.org/2000/svg" aria-hidden="true" style="position:absolute;width:0;height:0;overflow:hidden">
    <defs>
        <!-- moon-icon -->
        <symbol id="moon" viewBox="0 0 32 32">
            <path fill="none" stroke="" style="" stroke-linejoin="round" stroke-linecap="round" stroke-miterlimit="4" stroke-width="2.9091" d="M13.688 17.091c-4.477-4.263-5.373-10.517-2.986-15.637-1.789 0.568-3.281 1.705-4.772 3.127-1.418 1.34-2.544 2.935-3.312 4.691s-1.164 3.641-1.164 5.544c0 1.903 0.395 3.788 1.164 5.544s1.894 3.351 3.312 4.692c5.967 5.686 15.215 5.402 21.181-0.284 1.492-1.422 2.685-2.843 3.281-4.55-5.667 1.991-12.231 1.137-16.707-3.127l0.003-0.001z"></path>
        </symbol>

        <!-- sun-icon -->
        <symbol id="sun" viewBox="6 6 21 21">
            <path
                d="M16.529 22v0c-3.038 0-5.5-2.462-5.5-5.5s2.462-5.5 5.5-5.5c3.038 0 5.5 2.462 5.5 5.5s-2.462 5.5-5.5 5.5zM16.529 21c2.485 0 4.5-2.015 4.5-4.5s-2.015-4.5-4.5-4.5c-2.485 0-4.5 2.015-4.5 4.5s2.015 4.5 4.5 4.5v0zM16.529 7c-0.276 0-0.5 0.216-0.5 0.495v2.009c0 0.274 0.232 0.495 0.5 0.495 0.276 0 0.5-0.216 0.5-0.495v-2.009c0-0.274-0.232-0.495-0.5-0.495v0zM23.267 9.791c-0.195-0.195-0.506-0.201-0.704-0.003l-1.421 1.421c-0.193 0.193-0.186 0.514 0.003 0.704 0.195 0.195 0.506 0.201 0.704 0.003l1.421-1.421c0.193-0.193 0.186-0.514-0.003-0.704v0zM26.058 16.529c0-0.276-0.216-0.5-0.495-0.5h-2.009c-0.274 0-0.495 0.232-0.495 0.5 0 0.276 0.216 0.5 0.495 0.5h2.009c0.274 0 0.495-0.232 0.495-0.5v0zM23.267 23.267c0.195-0.195 0.201-0.506 0.003-0.704l-1.421-1.421c-0.193-0.193-0.514-0.186-0.704 0.003-0.195 0.195-0.201 0.506-0.003 0.704l1.421 1.421c0.193 0.193 0.514 0.186 0.704-0.003v0zM16.529 26.058c0.276 0 0.5-0.216 0.5-0.495v-2.009c0-0.274-0.232-0.495-0.5-0.495-0.276 0-0.5 0.216-0.5 0.495v2.009c0 0.274 0.232 0.495 0.5 0.495v0zM9.791 23.267c0.195 0.195 0.506 0.201 0.704 0.003l1.421-1.421c0.193-0.193 0.186-0.514-0.003-0.704-0.195-0.195-0.506-0.201-0.704-0.003l-1.421 1.421c-0.193 0.193-0.186 0.514 0.003 0.704v0zM7 16.529c0 0.276 0.216 0.5 0.495 0.5h2.009c0.274 0 0.495-0.232 0.495-0.5 0-0.276-0.216-0.5-0.495-0.5h-2.009c-0.274 0-0.495 0.232-0.495 0.5v0zM9.791 9.791c-0.195 0.195-0.201 0.506-0.003 0.704l1.421 1.421c0.193 0.193 0.514 0.186 0.704-0.003 0.195-0.195 0.201-0.506 0.003-0.704l-1.421-1.421c-0.193-0.193-0.514-0.186-0.704 0.003v0z">
            </path>
        </symbol>

        <!-- arrow-down -->
        <symbol id="icon-arrow-down" viewBox="0 0 32 32">
            <path fill="none" stroke-linejoin="round" stroke-linecap="round" stroke-miterlimit="4" stroke-width="3.2" d="M2.133 2.133l27.733 27.733M29.867 29.867v-26.624M29.867 29.867h-26.624"></path>
        </symbol>

        <!-- arrow-up -->
        <symbol id="icon-arrow-up" viewBox="0 0 32 32">
            <path  d="M2.462 0v4.923h21.145l-23.606 23.606 3.471 3.471 23.606-23.606v21.145h4.923v-29.538h-29.538z"></path>
        </symbol>

        <!-- arrow-down -->
        <symbol id="select-arrow-down" viewBox="0 0 58 32">
            <path d="M52.789 3.165l-23.99 23.386-23.99-23.386c-0.429-0.419-1.004-0.653-1.603-0.653s-1.175 0.234-1.603 0.653c-0.208 0.203-0.372 0.446-0.485 0.714s-0.171 0.556-0.171 0.846c0 0.291 0.058 0.578 0.171 0.846s0.277 0.511 0.485 0.714l25.522 24.883c0.448 0.437 1.049 0.681 1.675 0.681s1.227-0.244 1.675-0.681l25.521-24.878c0.209-0.204 0.375-0.447 0.489-0.716s0.172-0.558 0.172-0.849-0.058-0.58-0.172-0.849c-0.113-0.269-0.279-0.512-0.489-0.716-0.428-0.419-1.004-0.653-1.603-0.653s-1.174 0.234-1.603 0.653v0.005z"></path>
        </symbol>

        <!-- arrow-up -->
        <symbol id="select-arrow-up" viewBox="0 0 58 32">
            <path d="M4.81 28.835l23.99-23.386 23.991 23.386c0.428 0.419 1.004 0.653 1.603 0.653s1.174-0.234 1.603-0.653c0.207-0.203 0.372-0.446 0.485-0.714s0.171-0.556 0.171-0.846c0-0.291-0.058-0.578-0.171-0.846s-0.277-0.511-0.485-0.714l-25.522-24.883c-0.448-0.437-1.049-0.681-1.675-0.681s-1.227 0.244-1.675 0.681l-25.522 24.878c-0.209 0.204-0.375 0.447-0.489 0.716s-0.172 0.558-0.172 0.849c0 0.292 0.058 0.58 0.172 0.849s0.28 0.512 0.489 0.716c0.429 0.419 1.004 0.653 1.603 0.653s1.175-0.234 1.603-0.653v-0.005z"></path>
        </symbol>

        <!-- arrow-right -->
        <symbol id="icon-arrow-right" viewBox="0 0 17 12">
            <path d="M10.3616 0L16.5 5.99997L15.5111 6.9666L15.5039 6.95955L10.3471 12L9.35822 11.0334L13.8084 6.6835H0.5V5.31648H13.8229L9.37272 0.96663L10.3616 0Z"></path>
        </symbol>

        <!-- arrow-header-right -->
        <symbol id="icon-header-arrow-right"  viewBox="0 0 16 12" >
           <path d="M9.86164 0L16 5.99997L15.0111 6.9666L15.0039 6.95955L9.84715 12L8.85822 11.0334L13.3084 6.6835H0V5.31648H13.3229L8.87272 0.96663L9.86164 0Z"></path>
        </symbol>

        <!-- slider-arrow-right -->
        <symbol id="icon-slider-arrow-right"  viewBox="0 0 60 60" >
           <circle cx="30" cy="30" r="29"/>
           <path d="M39.335 30.999L38.5872 31.8517L38.5769 31.8399L38.201 32.2686L31.2102 40.2407L30.4625 39.388L36.5308 32.4679L37.2584 31.6382H36.1549H20.5V30.3598H36.1756H37.279L36.5515 29.5302L30.4832 22.6101L31.2309 21.7574L39.335 30.999Z"/>
        </symbol>

          <!-- slider-arrow-left -->
        <symbol id="icon-slider-arrow-left"  viewBox="0 0 60 60" >
           <circle cx="30" cy="30" r="29" transform="matrix(-1 0 0 1 60 0)"/>
           <path d="M23.8244 29.3608H39.5V30.6392H23.8451H22.7416L23.4692 31.4688L29.5375 38.389L28.7898 39.2416L21.799 31.2696L21.4231 30.8409L21.4127 30.8526L20.665 30L28.7691 20.7584L29.5168 21.611L23.4485 28.5311L22.721 29.3608H23.8244Z" />
           <path d="M23.3156 29.5815H38.9912V30.8599H23.3363H22.2329L22.9604 31.6895L29.0287 38.6097L28.281 39.4623L21.2902 31.4903L20.9143 31.0616L20.904 31.0733L20.1562 30.2207L28.2603 20.9791L29.008 21.8318L22.9397 28.7518L22.2122 29.5815H23.3156Z"/>
        </symbol>

        <!-- linkedin -->
        <symbol id="linkedin" viewBox="0 0 30 30">
            <path d="M26.6667 0C27.5507 0 28.3986 0.351189 29.0237 0.976311C29.6488 1.60143 30 2.44928 30 3.33333V26.6667C30 27.5507 29.6488 28.3986 29.0237 29.0237C28.3986 29.6488 27.5507 30 26.6667 30H3.33333C2.44928 30 1.60143 29.6488 0.976311 29.0237C0.351189 28.3986 0 27.5507 0 26.6667V3.33333C0 2.44928 0.351189 1.60143 0.976311 0.976311C1.60143 0.351189 2.44928 0 3.33333 0H26.6667ZM25.8333 25.8333V17C25.8333 15.559 25.2609 14.177 24.2419 13.1581C23.223 12.1391 21.841 11.5667 20.4 11.5667C18.9833 11.5667 17.3333 12.4333 16.5333 13.7333V11.8833H11.8833V25.8333H16.5333V17.6167C16.5333 16.3333 17.5667 15.2833 18.85 15.2833C19.4688 15.2833 20.0623 15.5292 20.4999 15.9668C20.9375 16.4043 21.1833 16.9978 21.1833 17.6167V25.8333H25.8333ZM6.46667 9.26667C7.20927 9.26667 7.92146 8.97167 8.44657 8.44657C8.97167 7.92146 9.26667 7.20927 9.26667 6.46667C9.26667 4.91667 8.01667 3.65 6.46667 3.65C5.71964 3.65 5.00321 3.94675 4.47498 4.47498C3.94675 5.00321 3.65 5.71964 3.65 6.46667C3.65 8.01667 4.91667 9.26667 6.46667 9.26667ZM8.78333 25.8333V11.8833H4.16667V25.8333H8.78333Z"></path>
        </symbol>

        <!-- facebook -->
        <symbol id="facebook" viewBox="0 0 30 30">
            <path d="M25.5755 0H4.42233C1.99005 0 0 1.99005 0 4.42233V25.5777C0 28.01 1.99005 30 4.42233 30H25.5777C28.01 30 30 28.01 30 25.5777V4.42233C29.9978 1.99005 28.0099 0 25.5755 0ZM25.2913 16.0122H21.7313V28.8922H16.4046V16.0122H13.7402V11.5721H16.4046V8.90768C16.4046 5.28579 17.9082 3.13101 22.1868 3.13101H25.7435V7.56993H23.5191C21.8563 7.56993 21.7457 8.19237 21.7457 9.34992L21.7313 11.5721H25.7612L25.2913 16.0122Z"></path>
        </symbol>

        <!-- instagram -->
        <symbol id="instagram" viewBox="0 0 30 30">
            <path d="M8.7 0H21.3C26.1 0 30 3.9 30 8.7V21.3C30 23.6074 29.0834 25.8203 27.4518 27.4518C25.8203 29.0834 23.6074 30 21.3 30H8.7C3.9 30 0 26.1 0 21.3V8.7C0 6.39262 0.916605 4.17974 2.54817 2.54817C4.17974 0.916605 6.39262 0 8.7 0ZM8.4 3C6.96783 3 5.59432 3.56893 4.58162 4.58162C3.56893 5.59432 3 6.96783 3 8.4V21.6C3 24.585 5.415 27 8.4 27H21.6C23.0322 27 24.4057 26.4311 25.4184 25.4184C26.4311 24.4057 27 23.0322 27 21.6V8.4C27 5.415 24.585 3 21.6 3H8.4ZM22.875 5.25C23.3723 5.25 23.8492 5.44754 24.2008 5.79917C24.5525 6.15081 24.75 6.62772 24.75 7.125C24.75 7.62228 24.5525 8.09919 24.2008 8.45082C23.8492 8.80246 23.3723 9 22.875 9C22.3777 9 21.9008 8.80246 21.5492 8.45082C21.1975 8.09919 21 7.62228 21 7.125C21 6.62772 21.1975 6.15081 21.5492 5.79917C21.9008 5.44754 22.3777 5.25 22.875 5.25ZM15 7.5C16.9891 7.5 18.8968 8.29018 20.3033 9.6967C21.7098 11.1032 22.5 13.0109 22.5 15C22.5 16.9891 21.7098 18.8968 20.3033 20.3033C18.8968 21.7098 16.9891 22.5 15 22.5C13.0109 22.5 11.1032 21.7098 9.6967 20.3033C8.29018 18.8968 7.5 16.9891 7.5 15C7.5 13.0109 8.29018 11.1032 9.6967 9.6967C11.1032 8.29018 13.0109 7.5 15 7.5ZM15 10.5C13.8065 10.5 12.6619 10.9741 11.818 11.818C10.9741 12.6619 10.5 13.8065 10.5 15C10.5 16.1935 10.9741 17.3381 11.818 18.182C12.6619 19.0259 13.8065 19.5 15 19.5C16.1935 19.5 17.3381 19.0259 18.182 18.182C19.0259 17.3381 19.5 16.1935 19.5 15C19.5 13.8065 19.0259 12.6619 18.182 11.818C17.3381 10.9741 16.1935 10.5 15 10.5Z"></path>
        </symbol>

        <!-- telegram -->
        <symbol id="telegram" viewBox="0 0 38 33">
            <path d="M36.4205 0.61895C36.1407 0.37762 35.8003 0.217205 35.4361 0.154981C35.0718 0.0927563 34.6975 0.13108 34.3534 0.265825L2.68773 12.658C2.113 12.8819 1.6265 13.2863 1.30145 13.8105C0.976397 14.3347 0.830377 14.9502 0.885361 15.5646C0.940344 16.1789 1.19336 16.7588 1.60633 17.2169C2.01929 17.675 2.56988 17.9867 3.17523 18.1049L10.8752 19.6158V28.2502C10.8752 28.8732 11.0614 29.4819 11.4099 29.9983C11.7583 30.5147 12.2532 30.9152 12.8309 31.1483C13.4086 31.3814 14.0429 31.4365 14.6521 31.3065C15.2614 31.1766 15.8179 30.8675 16.2502 30.4189L19.7924 26.7455L25.6174 31.8439C26.0238 32.2013 26.5159 32.447 27.0457 32.557C27.5755 32.6671 28.1248 32.6376 28.6398 32.4716C29.1549 32.3056 29.6179 32.0087 29.9838 31.61C30.3496 31.2113 30.6056 30.7244 30.7268 30.1971L37.0737 2.61114C37.1563 2.25107 37.1391 1.8753 37.024 1.52427C36.9089 1.17324 36.7003 0.860235 36.4205 0.61895ZM22.033 9.1127L12.3159 16.0768L6.93617 15.0221L22.033 9.1127ZM14.6252 26.6971V22.2111L16.969 24.2658L14.6252 26.6971ZM27.3065 28.3408L15.7627 18.2205L32.3737 6.31739L27.3065 28.3408Z"></path>
        </symbol>

        <!-- close -->
        <symbol id="close" viewBox="0 0 24 24">
            <path fill='none' d="M3 3L21 21M3 21L21 3" stroke-width="2"/>
        </symbol>

        <!-- phoneButton -->
        <symbol id="phoneButton" viewBox="0 0 56 56">
            <path d="M17.8786 10.1238L17.8786 10.1238C17.2644 10.1601 16.6983 10.4339 16.206 10.8528L16.1754 10.8788L16.1469 10.9072L11.4035 15.6507C10.446 16.539 10.1452 17.8051 10.1292 18.9157C9.99544 21.8122 11.4481 25.0103 12.5562 27.3037L12.564 27.3199L12.5724 27.3358C15.6101 33.0863 20.424 37.8041 25.6071 41.5748L25.6284 41.5903L25.6505 41.6046C28.7974 43.6498 32.7815 45.7487 37.079 45.8775L37.0946 45.8779L37.1101 45.8779C38.1816 45.8767 39.4109 45.5893 40.3617 44.6185L45.1139 39.9038L45.1204 39.8973L45.1269 39.8907C46.3097 38.6731 46.0847 36.6987 44.5476 35.7352L44.5363 35.7282L44.5249 35.7214L37.6172 31.6438L37.382 31.5049H37.3103C36.1303 30.9886 34.8066 31.4516 33.9995 32.0634L33.9412 32.1076L33.89 32.1598L32.0045 34.0801C31.9792 34.0753 31.9516 34.0688 31.9225 34.0607L31.8916 34.052L31.8602 34.0454C30.829 33.8279 29.864 33.248 28.8958 32.4606C28.2458 31.932 27.6602 31.3695 27.063 30.7957C26.7443 30.4895 26.4222 30.1802 26.0853 29.871L26.0853 29.871C24.4024 28.327 22.6226 26.2094 21.9488 23.9981L23.5391 22.4078L23.5392 22.4078L23.5469 22.3999C24.4083 21.5193 24.7632 20.1574 24.1648 18.8804L24.1548 18.859L24.1438 18.8382L20.3157 11.5785L20.2951 11.5394L20.2712 11.5023C19.7636 10.7165 18.9462 10.0608 17.8786 10.1238ZM1 28C1 13.0883 13.0883 1 28 1C42.9117 1 55 13.0883 55 28C55 42.9117 42.9117 55 28 55C13.0883 55 1 42.9117 1 28Z"/>
        </symbol>

        <!-- success -->
        <symbol id="success" viewBox="0 0 32 32">
            <path d="M16 0c-8.836 0-16 7.163-16 16s7.163 16 16 16c8.837 0 16-7.163 16-16s-7.163-16-16-16zM16 30.032c-7.72 0-14-6.312-14-14.032s6.28-14 14-14 14 6.281 14 14c0 7.719-6.28 14.032-14 14.032zM22.386 10.146l-9.388 9.446-4.228-4.227c-0.39-0.39-1.024-0.39-1.415 0s-0.391 1.023 0 1.414l4.95 4.95c0.39 0.39 1.024 0.39 1.415 0 0.045-0.045 0.084-0.094 0.119-0.145l9.962-10.024c0.39-0.39 0.39-1.024 0-1.414-0.391-0.39-1.024-0.39-1.415 0z"></path>
        </symbol>

        <!-- failure -->
        <symbol id="failure" viewBox="0 0 32 32">
            <path d="M16 0c1.478 0 2.894 0.189 4.25 0.567s2.633 0.911 3.833 1.6 2.278 1.522 3.233 2.5c0.956 0.978 1.789 2.061 2.5 3.25s1.25 2.461 1.617 3.817 0.556 2.778 0.567 4.267c0 1.478-0.189 2.894-0.567 4.25s-0.911 2.633-1.6 3.833-1.522 2.278-2.5 3.233c-0.978 0.956-2.061 1.789-3.25 2.5s-2.461 1.25-3.817 1.617-2.778 0.556-4.267 0.567c-1.478 0-2.894-0.189-4.25-0.567s-2.633-0.911-3.833-1.6-2.278-1.522-3.233-2.5c-0.956-0.978-1.789-2.061-2.5-3.25s-1.25-2.461-1.617-3.817-0.556-2.778-0.567-4.267c0-1.478 0.189-2.894 0.567-4.25s0.911-2.633 1.6-3.833 1.522-2.278 2.5-3.233c0.978-0.956 2.061-1.789 3.25-2.5s2.461-1.25 3.817-1.617 2.778-0.556 4.267-0.567zM16 29.867c1.267 0 2.489-0.167 3.667-0.5s2.283-0.8 3.317-1.4c1.033-0.6 1.972-1.322 2.817-2.167s1.567-1.778 2.167-2.8c0.6-1.022 1.067-2.128 1.4-3.317s0.5-2.417 0.5-3.683-0.167-2.489-0.5-3.667c-0.333-1.178-0.8-2.283-1.4-3.317s-1.322-1.972-2.167-2.817-1.778-1.567-2.8-2.167c-1.022-0.6-2.128-1.067-3.317-1.4s-2.417-0.5-3.683-0.5c-1.278 0-2.506 0.167-3.683 0.5s-2.278 0.8-3.3 1.4c-1.022 0.6-1.961 1.322-2.817 2.167s-1.578 1.778-2.167 2.8c-0.589 1.022-1.056 2.128-1.4 3.317s-0.511 2.417-0.5 3.683c0 1.267 0.167 2.489 0.5 3.667s0.8 2.283 1.4 3.317c0.6 1.033 1.322 1.972 2.167 2.817s1.778 1.567 2.8 2.167c1.022 0.6 2.128 1.067 3.317 1.4s2.417 0.5 3.683 0.5zM14.933 8.533h2.133v10.667h-2.133v-10.667zM14.933 21.333h2.133v2.133h-2.133v-2.133z"></path>
        </symbol>

        <!-- arrow-up -->
        <symbol id="arrow-up"  viewBox="0 0 80 80" fill="none">
          <circle cx="40" cy="40" r="39" stroke="#969395" stroke-width="2"/>
          <path fill="#969395" stroke="#969395" d="m39.9999 14.665 3.4303 3.0081-.0305.0268.4287.376 21.4132 18.7775-3.4303 3.0082-18.5198-16.2402-.8297-.7276V65.5h-4.9237V22.8401l-.8297.7275-18.5197 16.2402-3.4303-3.0082L39.9999 14.665Z"/>
        </symbol>

        <!-- calendar-left-2next -->
        <symbol id="calendar-left-2next" viewBox="0 0 29 32">
            <path d="M15.393 0.891c0.113-0.116 0.248-0.208 0.397-0.271s0.31-0.095 0.472-0.095c0.162 0 0.323 0.032 0.472 0.095s0.285 0.155 0.398 0.271c0.232 0.238 0.361 0.557 0.361 0.889s-0.13 0.651-0.361 0.889l-12.995 13.328 12.995 13.331c0.117 0.12 0.209 0.261 0.271 0.417s0.093 0.322 0.091 0.489c-0.002 0.167-0.037 0.333-0.103 0.487s-0.161 0.293-0.281 0.41c-0.114 0.111-0.249 0.199-0.397 0.259s-0.306 0.089-0.466 0.087c-0.16-0.002-0.317-0.035-0.464-0.098s-0.279-0.154-0.391-0.268l-13.819-14.181c-0.243-0.249-0.379-0.583-0.379-0.931s0.136-0.682 0.379-0.931l13.819-14.176zM26.059 0.891c0.113-0.116 0.248-0.208 0.397-0.271s0.31-0.095 0.472-0.095c0.162 0 0.323 0.032 0.472 0.095s0.285 0.155 0.398 0.271c0.232 0.238 0.361 0.557 0.361 0.889s-0.13 0.651-0.361 0.889l-12.995 13.328 12.995 13.331c0.117 0.12 0.209 0.261 0.271 0.417s0.093 0.322 0.091 0.489c-0.002 0.167-0.037 0.333-0.103 0.487s-0.161 0.293-0.281 0.41c-0.114 0.111-0.249 0.199-0.397 0.259s-0.306 0.089-0.466 0.087c-0.16-0.002-0.317-0.035-0.464-0.098s-0.279-0.154-0.391-0.268l-13.819-14.181c-0.243-0.249-0.379-0.583-0.379-0.931s0.136-0.682 0.379-0.931l13.819-14.176z"></path>
        </symbol>

        <!-- calendar-left-next -->
        <symbol id="calendar-left-next" viewBox="0 0 17 32">
            <path d="M14.726 0.891l-13.819 14.176c-0.243 0.249-0.379 0.583-0.379 0.931s0.136 0.682 0.379 0.931l13.819 14.181c0.113 0.116 0.248 0.208 0.397 0.271s0.31 0.095 0.472 0.095c0.162 0 0.323-0.033 0.472-0.095s0.285-0.155 0.398-0.271c0.233-0.238 0.363-0.558 0.363-0.891s-0.13-0.653-0.363-0.891l-12.995-13.331 12.995-13.328c0.232-0.238 0.361-0.557 0.361-0.889s-0.13-0.651-0.361-0.889c-0.113-0.116-0.248-0.208-0.398-0.271s-0.31-0.095-0.472-0.095c-0.162 0-0.323 0.032-0.472 0.095s-0.284 0.155-0.397 0.271z"></path>
        </symbol>


        <!-- calendar-right-2next -->
        <symbol id="calendar-right-2next" viewBox="0 0 29 32">
            <path d="M13.941 31.109c-0.113 0.116-0.248 0.208-0.397 0.271s-0.31 0.095-0.472 0.095-0.322-0.033-0.472-0.095c-0.149-0.063-0.284-0.155-0.398-0.271-0.232-0.238-0.361-0.557-0.361-0.889s0.13-0.651 0.361-0.889l12.995-13.328-12.995-13.331c-0.117-0.12-0.209-0.261-0.271-0.417s-0.093-0.322-0.091-0.489c0.002-0.167 0.037-0.333 0.103-0.487s0.161-0.293 0.281-0.41c0.114-0.112 0.249-0.199 0.397-0.259s0.306-0.089 0.466-0.087c0.159 0.002 0.317 0.035 0.464 0.098s0.279 0.154 0.391 0.268l13.819 14.181c0.243 0.249 0.379 0.583 0.379 0.931s-0.136 0.682-0.379 0.931l-13.819 14.176zM3.274 31.109c-0.113 0.116-0.248 0.208-0.398 0.271s-0.31 0.095-0.472 0.095-0.322-0.033-0.472-0.095c-0.149-0.063-0.284-0.155-0.398-0.271-0.232-0.238-0.361-0.557-0.361-0.889s0.13-0.651 0.361-0.889l12.995-13.328-12.995-13.331c-0.117-0.12-0.209-0.261-0.271-0.417s-0.093-0.322-0.091-0.489c0.002-0.167 0.037-0.333 0.103-0.487s0.161-0.293 0.281-0.41c0.114-0.112 0.249-0.199 0.397-0.259s0.306-0.089 0.466-0.087c0.159 0.002 0.317 0.035 0.464 0.098s0.279 0.154 0.391 0.268l13.819 14.181c0.243 0.249 0.379 0.583 0.379 0.931s-0.136 0.682-0.379 0.931l-13.819 14.176z"></path>
        </symbol>

        <!-- calendar-right-next -->
        <symbol id="calendar-right-next" viewBox="0 0 17 32">
            <path d="M2.607 31.109l13.819-14.176c0.243-0.249 0.379-0.583 0.379-0.931s-0.136-0.682-0.379-0.931l-13.819-14.181c-0.113-0.116-0.248-0.208-0.398-0.271s-0.31-0.095-0.472-0.095c-0.162 0-0.322 0.032-0.472 0.095s-0.284 0.155-0.398 0.271c-0.233 0.238-0.363 0.558-0.363 0.891s0.13 0.653 0.363 0.891l12.995 13.331-12.995 13.328c-0.232 0.238-0.361 0.557-0.361 0.889s0.13 0.651 0.361 0.889c0.113 0.116 0.248 0.208 0.398 0.271s0.31 0.095 0.472 0.095 0.323-0.033 0.472-0.095c0.149-0.063 0.284-0.155 0.398-0.271z"></path>
        </symbol>
    </defs>
</svg>
