<svg width="152" height="56" viewBox="0 0 152 56" fill="none" xmlns="http://www.w3.org/2000/svg">
<g id="Logo">
<g id="text">
<path id="Path 129" fill-rule="evenodd" clip-rule="evenodd" d="M150.764 22.3333H148.986L148.215 20.703C147.278 19.9575 146.092 19.5483 144.865 19.5479C144.066 19.515 143.272 19.6974 142.578 20.0739C142.307 20.2173 142.082 20.4271 141.926 20.6812C141.771 20.9353 141.691 21.2242 141.696 21.5175C141.699 21.7914 141.768 22.0611 141.9 22.3055C142.031 22.55 142.22 22.7627 142.452 22.9271C143.012 23.3516 143.654 23.6693 144.342 23.8623C145.099 24.0885 145.921 24.3546 146.81 24.6606C147.699 24.9667 148.521 25.2894 149.277 25.6288C150.032 25.9673 150.682 26.4818 151.167 27.1235C151.671 27.7801 151.998 29.1092 151.998 29.992C152.023 30.7654 151.86 31.5341 151.519 32.2381C151.179 32.9422 150.671 33.5628 150.035 34.0516C147.46 36.0785 136.732 35.5045 133.03 35.686L132.41 33.3482C131.065 34.6163 129.06 35.2503 126.395 35.2503C124.353 35.2503 122.763 34.7067 121.623 33.6197C120.483 32.5326 119.912 31.0267 119.912 29.1019V20.5423L110.943 20.5762V29.2044C110.943 30.2685 111.117 31.0441 111.465 31.5311C111.648 31.7928 111.906 32.0003 112.209 32.1295C112.511 32.2588 112.847 32.3046 113.176 32.2617L115.805 32.0238V34.4356C114.845 34.8205 113.56 35.013 111.951 35.013C110.246 35.013 108.997 34.6337 108.205 33.8751C107.413 33.1165 107.016 31.8427 107.016 30.0536V20.5762H104.855V17.8936L107.016 17.7577L107.521 12.6283H110.943V17.7235H123.838V28.3897C123.838 29.5446 124.174 30.4618 124.847 31.1413C125.519 31.8208 126.492 32.1605 127.764 32.1603C128.597 32.1688 129.425 32.0425 130.212 31.7868C130.781 31.6232 131.317 31.3706 131.797 31.0396L132.265 30.6659V20.5432L130.251 20.4067L130.431 17.7232H136.195V31.7398C139.439 32.3757 145.894 32.8532 147.061 32.1951C147.348 31.9821 147.58 31.7092 147.737 31.3978C147.894 31.0863 147.973 30.7448 147.967 30.3999C147.967 29.7433 147.55 28.6515 146.866 28.2445C146.087 27.7986 145.244 27.4611 144.363 27.2424C143.378 26.9822 142.388 26.682 141.391 26.3421C140.418 26.0174 139.549 25.4618 138.87 24.7287C138.168 23.9483 137.802 22.9486 137.843 21.9263C137.822 21.2313 137.977 20.5417 138.297 19.9152C138.616 19.2887 139.091 18.7435 139.68 18.3255C140.904 17.4198 142.441 16.9668 144.29 16.9666C145.855 16.9968 147.373 17.4702 148.649 18.3255L149.117 17.3065H151.098L150.766 22.3328L150.764 22.3333ZM73.6378 20.6384H71.8753L70.2878 16.2288C69.2304 15.3565 67.8744 14.8739 66.4696 14.8699C65.0768 14.8699 64.0026 15.1643 63.2469 15.753C62.8679 16.0559 62.5683 16.4373 62.3715 16.8674C62.1746 17.2975 62.0859 17.7647 62.1122 18.2326C62.1155 18.6735 62.2359 19.1066 62.4625 19.4923C62.689 19.878 63.0144 20.2041 63.409 20.4406C64.3724 21.0754 65.4361 21.5626 66.5607 21.8842C67.7964 22.2571 69.0391 22.6647 70.2887 23.1072C71.4938 23.5215 72.5793 24.1961 73.4584 25.0771C74.3295 25.9672 74.7945 27.1446 74.7533 28.3552C74.7533 30.484 73.9849 32.1655 72.4479 33.3996C70.911 34.6338 68.7501 35.2512 65.9654 35.2517C64.5168 35.2584 63.0705 35.1447 61.6431 34.9119C60.6613 34.7747 59.6961 34.5472 58.7613 34.2328L57.8964 33.892L57.8242 28.4566L60.7779 28.2866L61.1383 31.7854C62.5582 32.2162 64.041 32.434 65.5325 32.4309C67.2858 32.4309 68.5886 32.0969 69.4409 31.4289C69.8548 31.1127 70.1856 30.7106 70.4074 30.2539C70.6292 29.7972 70.736 29.2983 70.7195 28.7962C70.719 28.4487 70.6344 28.1058 70.4721 27.7938C70.3099 27.4818 70.0742 27.2089 69.783 26.9958C69.0936 26.4653 68.297 26.0724 67.4416 25.8409C66.505 25.5682 65.4964 25.2397 64.4158 24.8555C63.3352 24.4714 62.3265 24.0637 61.3899 23.6326C60.4388 23.1901 59.6305 22.5157 59.0488 21.6793C58.4092 20.7571 58.0825 19.6729 58.1124 18.5712C58.0824 17.6976 58.2555 16.8283 58.6195 16.0244C58.9835 15.2204 59.5296 14.5014 60.2195 13.9176C61.6243 12.7179 63.4912 12.1177 65.8204 12.1172C67.3813 12.1172 68.9903 12.6267 70.6473 13.6458L71.2233 12.4228H73.6378V20.637V20.6384ZM86.9932 20.5765V17.7232H81.8416V12.6277H78.4197L77.914 17.7571L75.753 17.893V20.5765H77.914V30.0539C77.914 31.8431 78.3102 33.1169 79.1027 33.8754C79.8951 34.6338 81.1438 35.0131 82.8487 35.0133C84.4575 35.0133 87.4967 33.5665 88.4573 33.1816C88.6771 33.4571 88.9307 33.7072 89.2128 33.9265C90.3411 34.8094 91.914 35.2511 93.9315 35.2515C95.0019 35.2716 96.0645 35.0747 97.0472 34.674C97.9477 34.2889 98.548 33.9382 98.8482 33.622C99.1031 33.3632 99.3266 33.0784 99.5144 32.7728L100.055 34.7091H105.17L105.35 32.1959L103.26 32.0601V23.5654C103.26 19.3086 101.111 17.18 96.813 17.1794C95.1159 17.1843 93.4641 17.6958 92.0943 18.6405L91.7339 17.5198H89.3206L89.179 23.1244H92.1327L92.3127 20.9844C93.2723 20.2062 94.5055 19.7942 95.7706 19.8293C97.0673 19.8293 97.9917 20.118 98.5439 20.6954C99.0961 21.2729 99.3723 22.2523 99.3725 23.6337V24.483C99.2284 24.5058 99.0006 24.5245 98.688 24.551C97.4147 24.6598 96.5865 24.7436 96.2025 24.7889C95.8186 24.8342 95.0318 24.9473 93.8432 25.1285C92.9674 25.2259 92.1114 25.4434 91.3022 25.774C90.7984 26.023 90.1861 26.3457 89.4653 26.7422C88.8106 27.0741 88.2822 27.5905 87.9538 28.2193C87.6659 28.8076 87.5364 30.7538 87.5658 30.9882L84.0745 32.2614C83.3355 32.5308 82.7111 32.018 82.3637 31.5308C82.0164 31.0437 81.8413 30.2678 81.8413 29.2041V20.5762L86.9932 20.5765ZM95.1592 32.7038C92.7579 32.7038 91.5573 31.7753 91.5573 29.9183C91.5474 29.5312 91.6338 29.1473 91.8095 28.7974C92.0088 28.4515 92.3172 28.1726 92.692 27.9993C93.076 27.8004 93.473 27.6247 93.8807 27.4733C94.4178 27.3021 94.9735 27.1882 95.5375 27.1337C96.2695 27.0433 96.8638 26.9811 97.3205 26.947L99.3737 26.7939V30.4967C99.3256 30.5874 99.2655 30.6894 99.1934 30.8026C99.0538 30.9959 98.8972 31.1777 98.7252 31.3462C98.4901 31.5912 98.224 31.808 97.9328 31.9917C97.5683 32.2055 97.1744 32.3713 96.7621 32.4844C96.2426 32.6347 95.7017 32.7086 95.1583 32.7032L95.1592 32.7038Z" fill="#FEFEFE"/>
<path id="Path 130" fill-rule="evenodd" clip-rule="evenodd" d="M59.3116 43.08H57.8552L57.8242 42.6125L58.2946 42.5888L59.6428 39.2352H60.5793L61.9275 42.625L62.3923 42.6428L62.3613 43.0812H60.8247V42.7013L61.2074 42.6835L60.9065 41.95H59.2258L58.9249 42.6656L59.3451 42.6835L59.3141 43.0797L59.3116 43.08ZM60.0705 39.756L59.3869 41.5245H60.7416L60.0705 39.756ZM62.9631 43.08L62.9321 42.6125L63.4214 42.5888V39.6958L62.9256 39.6721L62.9566 39.2338H64.9509C65.5339 39.1963 66.1111 39.3627 66.5722 39.7013C66.7687 39.8822 66.9209 40.1016 67.0178 40.3439C67.1148 40.5863 67.1542 40.8457 67.1333 41.104C67.1508 41.3703 67.11 41.6372 67.0134 41.888C66.9169 42.1388 66.7667 42.3682 66.5722 42.5619C66.3526 42.7445 66.0968 42.8843 65.8196 42.9731C65.5423 43.0619 65.2492 43.0981 64.9571 43.0794L62.9631 43.08ZM64.9512 39.7679H64.136V42.5479H64.9639C65.1594 42.5615 65.3558 42.5359 65.5401 42.4728C65.7243 42.4097 65.8923 42.3105 66.033 42.1817C66.2944 41.8794 66.4234 41.4943 66.3937 41.1052C66.4111 40.9215 66.3884 40.7365 66.3269 40.5615C66.2653 40.3866 66.1664 40.2254 66.0361 40.0879C65.7316 39.8539 65.3432 39.7395 64.9515 39.7685L64.9512 39.7679ZM69.1608 39.6733L68.7781 39.6969L69.8627 42.5774H69.8689L70.9413 39.7136L70.5273 39.6958L70.5583 39.2343H72.0572V39.6727L71.6308 39.6963L70.3011 43.0794H69.3715L68.044 39.6978L67.5926 39.6741L67.6235 39.2358H69.1602V39.6741L69.1608 39.6733ZM76.7002 41.0987C76.7265 41.6491 76.5253 42.1877 76.1391 42.6011C75.9411 42.7952 75.7011 42.9469 75.4354 43.0459C75.1697 43.1449 74.8846 43.1888 74.5993 43.1747C74.3167 43.1891 74.0341 43.1455 73.771 43.047C73.5079 42.9484 73.2706 42.7973 73.0754 42.604C72.6936 42.1875 72.4961 41.6486 72.5235 41.0987C72.4969 40.8356 72.5324 40.5703 72.6274 40.3217C72.7225 40.073 72.8747 39.8473 73.0731 39.6608C73.2716 39.4742 73.5114 39.3314 73.7753 39.2425C74.0393 39.1537 74.3208 39.1211 74.5996 39.147C74.8812 39.1312 75.1632 39.1691 75.4289 39.2586C75.6945 39.348 75.9383 39.4871 76.1456 39.6674C76.3364 39.858 76.484 40.0833 76.5795 40.3295C76.6749 40.5756 76.7161 40.8376 76.7006 41.0993L76.7002 41.0987ZM75.9603 41.0987C75.9863 40.7192 75.8597 40.3444 75.6058 40.0491C75.4764 39.9224 75.3194 39.8237 75.1457 39.7599C74.9719 39.696 74.7855 39.6686 74.5993 39.6794C74.415 39.6685 74.2305 39.696 74.0587 39.7599C73.8869 39.8238 73.7321 39.9225 73.6053 40.0491C73.3553 40.3462 73.2313 40.7203 73.2573 41.0987C73.2362 41.4995 73.3613 41.895 73.6118 42.2194C73.729 42.3588 73.8798 42.4699 74.0515 42.5434C74.2233 42.6169 74.4112 42.6508 74.5996 42.6423C74.7904 42.6514 74.9808 42.6179 75.1551 42.5444C75.3295 42.4709 75.483 42.3596 75.603 42.2194C75.8554 41.8958 75.9814 41.5 75.9603 41.0987ZM81.1106 40.6136H80.5587L80.5024 39.91C80.2929 39.752 80.0304 39.6702 79.7624 39.6794C79.5777 39.6734 79.3938 39.7042 79.2225 39.7696C79.0512 39.8351 78.8965 39.9338 78.7683 40.0593C78.4962 40.3501 78.3575 40.7309 78.3825 41.118C78.3609 41.5196 78.4996 41.9143 78.7714 42.2241C78.9047 42.3626 79.0689 42.4716 79.2521 42.5432C79.4353 42.6147 79.6331 42.6472 79.8312 42.6382C79.9848 42.6385 80.1378 42.6188 80.2858 42.5797C80.416 42.5468 80.5411 42.4977 80.6576 42.4336C80.7512 42.3805 80.8413 42.322 80.9272 42.2583C80.9898 42.2135 81.0486 42.164 81.1029 42.1104L81.1593 42.052L81.4289 42.4719C81.4109 42.4987 81.391 42.5244 81.3694 42.5488C81.31 42.6092 81.2461 42.6656 81.1782 42.7174C81.0774 42.7985 80.9682 42.8699 80.8522 42.9304C80.7027 43.0033 80.5449 43.0599 80.3818 43.099C80.1799 43.1509 79.9714 43.1767 79.7621 43.1759C79.473 43.1942 79.1832 43.1538 78.9121 43.0573C78.6411 42.9609 78.3952 42.8107 78.191 42.6168C77.8128 42.2013 77.6185 41.6644 77.6485 41.1174C77.6354 40.8547 77.6792 40.5922 77.7774 40.346C77.8755 40.0998 78.0259 39.8751 78.2192 39.6855C78.408 39.5077 78.6333 39.3683 78.8814 39.2757C79.1295 39.1831 79.395 39.1394 79.6617 39.1473C79.9884 39.1523 80.3066 39.2468 80.5773 39.4193L80.6901 39.2004H81.1103V40.6139L81.1106 40.6136ZM83.307 43.08H81.8506L81.8196 42.6125L82.29 42.5888L83.6382 39.2352H84.5725L85.9207 42.625L86.3855 42.6428L86.3546 43.0812H84.8179V42.7013L85.2006 42.6835L84.8997 41.95H83.2184L82.9175 42.6656L83.338 42.6835L83.307 43.08ZM84.0655 39.756L83.3823 41.5245H84.7367L84.0655 39.756ZM86.8076 40.2647L86.8696 39.7443H87.7161V42.5891L87.2333 42.6127L87.2643 43.0803H88.8949L88.9259 42.6127L88.4366 42.5891V39.7443H89.3042L89.3482 40.2647H89.8688V39.206L89.2605 39.2352H86.9337L86.3254 39.206L86.2944 40.2647H86.8076ZM93.6325 40.1771H93.0806L93.0555 39.7454H91.6505V40.8989L93.4128 40.893V41.3839H91.6505V42.5727H93.1999L93.2563 42.0876L93.7769 42.1168L93.7394 43.0812H90.4774L90.4464 42.6136L90.9357 42.59V39.6969L90.4399 39.6733L90.4709 39.2349H93.0226L93.6309 39.2057V40.1756L93.6325 40.1771ZM100.434 40.6154H99.8822L99.8258 39.9117C99.6163 39.7537 99.3536 39.6719 99.0856 39.6812C98.9009 39.6752 98.717 39.7059 98.5458 39.7714C98.3746 39.8368 98.2199 39.9355 98.0918 40.061C97.8197 40.3519 97.681 40.7326 97.706 41.1198C97.6844 41.5214 97.8231 41.916 98.0949 42.2258C98.2282 42.3643 98.3923 42.4733 98.5756 42.5449C98.7588 42.6165 98.9566 42.649 99.1547 42.6399C99.3083 42.6403 99.4613 42.6206 99.6092 42.5815C99.7395 42.5486 99.8646 42.4994 99.9811 42.4354C100.075 42.3823 100.165 42.3237 100.25 42.26C100.313 42.2153 100.372 42.1658 100.426 42.1122L100.483 42.0537L100.752 42.4737C100.734 42.5004 100.714 42.5261 100.693 42.5505C100.633 42.611 100.57 42.6673 100.502 42.7191C100.401 42.8003 100.291 42.8717 100.175 42.9322C100.026 43.0051 99.8681 43.0617 99.705 43.1008C99.503 43.1526 99.2946 43.1785 99.0852 43.1776C98.7963 43.1959 98.5065 43.1555 98.2355 43.0591C97.9645 42.9626 97.7186 42.8124 97.5145 42.6186C97.1363 42.203 96.942 41.6661 96.9719 41.1192C96.9589 40.8565 97.0027 40.594 97.1009 40.3478C97.199 40.1016 97.3493 39.8768 97.5427 39.6873C97.7315 39.5095 97.9568 39.37 98.2049 39.2774C98.453 39.1849 98.7185 39.1412 98.9852 39.149C99.3119 39.154 99.63 39.2485 99.9008 39.4211L100.014 39.2022H100.434V40.6157L100.434 40.6154ZM105.671 41.1005C105.697 41.6509 105.496 42.1894 105.11 42.6028C104.912 42.797 104.672 42.9487 104.406 43.0477C104.14 43.1466 103.855 43.1906 103.57 43.1765C103.287 43.1908 103.005 43.1472 102.742 43.0487C102.479 42.9502 102.241 42.7991 102.046 42.6057C101.664 42.1893 101.467 41.6504 101.494 41.1005C101.468 40.8374 101.503 40.572 101.598 40.3234C101.693 40.0748 101.845 39.8491 102.044 39.6625C102.242 39.4759 102.482 39.3331 102.746 39.2443C103.01 39.1554 103.291 39.1228 103.57 39.1487C103.852 39.1329 104.134 39.1709 104.4 39.2603C104.665 39.3498 104.909 39.4888 105.116 39.6692C105.307 39.8597 105.455 40.085 105.55 40.3312C105.646 40.5774 105.687 40.8394 105.671 41.1011L105.671 41.1005ZM104.931 41.1005C104.957 40.721 104.83 40.3462 104.576 40.0508C104.447 39.9241 104.29 39.8254 104.116 39.7616C103.943 39.6978 103.756 39.6703 103.57 39.6812C103.386 39.6703 103.201 39.6978 103.029 39.7616C102.858 39.8255 102.703 39.9242 102.576 40.0508C102.326 40.3479 102.202 40.722 102.228 41.1005C102.207 41.5013 102.332 41.8968 102.582 42.2212C102.7 42.3606 102.85 42.4716 103.022 42.5451C103.194 42.6187 103.382 42.6526 103.57 42.644C103.761 42.6532 103.951 42.6197 104.126 42.5462C104.3 42.4727 104.454 42.3613 104.574 42.2212C104.826 41.8975 104.952 41.5017 104.931 41.1005H104.931ZM108.106 43.0818H106.595L106.564 42.6142L107.053 42.5905L107.059 39.6975L106.564 39.6738L106.595 39.2355H107.981L109.524 42.3819H109.536L111.06 39.2355H112.44V39.7031L111.975 39.7267V42.5905L112.471 42.6142L112.44 43.0818H110.897L110.866 42.6727L111.292 42.649L111.286 40.1531H111.274L109.831 43.0806H109.16L107.718 40.1531H107.705L107.699 42.661L108.138 42.6846L108.107 43.0809L108.106 43.0818ZM115.018 43.0818H113.337L113.306 42.6142L113.795 42.5905V39.6975L113.3 39.6738L113.331 39.2355H115.023C116.077 39.2355 116.604 39.6318 116.604 40.4243C116.617 40.6182 116.581 40.8123 116.499 40.9907C116.417 41.1691 116.292 41.3267 116.133 41.4506C115.822 41.684 115.434 41.808 115.036 41.8012H114.459V42.6528L115.048 42.6706L115.017 43.0797L115.018 43.0818ZM114.905 39.7165H114.46V41.343H114.905C115.156 41.3523 115.402 41.2768 115.598 41.13C115.694 41.0464 115.768 40.9433 115.816 40.8285C115.863 40.7137 115.882 40.5902 115.871 40.4675C115.871 39.9668 115.549 39.7165 114.905 39.7165ZM118.218 43.0818H116.761L116.73 42.6142L117.201 42.5905L118.549 39.237H119.486L120.834 42.6268L121.299 42.6446L121.268 43.0829H119.731V42.7031L120.114 42.6852L119.813 41.9517H118.132L117.831 42.6674L118.251 42.6852L118.22 43.0815L118.218 43.0818ZM118.977 39.7577L118.293 41.5263H119.648L118.977 39.7577ZM125.933 43.1113H125.2L122.961 40.1955H122.948L122.973 40.4497V42.6025L123.475 42.6203L123.444 43.0818H121.87L121.839 42.6142L122.328 42.5905V39.6975L121.832 39.6738L121.863 39.2355H123.068L125.294 42.2045L125.275 42.0093V39.7145L124.773 39.6966L124.804 39.2352H126.391V39.7028L125.934 39.7264V43.1095L125.933 43.1113ZM129.829 43.0821H128.199L128.161 42.6145L128.651 42.5908V41.5388L127.365 39.6934L126.769 39.6756L126.807 39.2373H128.431V39.6756L128.155 39.6934L129.039 40.9649L129.892 39.7051L129.635 39.6993V39.2378H131.178V39.7054L130.6 39.7232L129.365 41.533V42.5917L129.861 42.6154L129.829 43.0821Z" fill="#FEFEFE"/>
</g>
<path id="vector" fill-rule="evenodd" clip-rule="evenodd" d="M33.8784 29.7915C32.691 29.7868 31.5513 29.3501 30.697 28.5725C29.8426 27.7948 29.3394 26.7362 29.2923 25.6173H38.4976C38.4513 26.7416 37.9441 27.8051 37.0829 28.5838C36.2217 29.3624 35.0736 29.7955 33.8806 29.7918L33.8784 29.7915ZM12.5758 12.8851L26.8518 12.8933V12.229H12.5761L12.5758 12.8851ZM12.5758 14.1583V14.7784H26.8518V14.1151H12.5767V14.1583H12.5758ZM20.8276 10.5984L20.8332 11.2778L20.0408 11.2872L20.8276 10.5984ZM18.595 11.2904C18.9612 11.289 18.8348 11.2343 19.2813 10.8848L20.6782 9.67412C20.8152 9.54232 20.8332 9.54846 20.8332 9.32345V8.47278L19.4697 9.63905C18.5485 10.5265 18.5922 9.96839 18.5953 11.2904H18.595ZM18.595 9.32841C18.595 9.11596 18.595 8.90381 18.5934 8.69136C18.5934 8.25302 18.4862 8.3217 19.0558 7.86027L20.826 6.3372L20.8322 7.23754C20.8322 7.47746 20.7253 7.50376 20.356 7.82199L18.5953 9.329L18.595 9.32841ZM18.6074 7.19517C18.7056 7.10575 18.8184 7.03269 18.9172 6.9386C19.0483 6.81498 19.1004 6.76764 19.2287 6.6642L20.4474 5.60137C20.5558 5.51575 20.6565 5.42253 20.7594 5.32697C20.8741 5.2209 20.8304 5.07508 20.8313 4.87695C20.6042 4.91464 20.387 5.03124 20.0783 5.06718C19.8524 5.09378 19.8363 5.05316 19.6888 5.17093L19.1825 5.60926C18.7233 6.0102 18.5937 6.01166 18.5937 6.38278L18.6077 7.19458L18.6074 7.19517ZM17.8727 2.74925C17.8294 2.40581 17.8953 2.05799 18.0619 1.74987C18.2285 1.44175 18.4883 1.18719 18.8084 1.01845C19.1285 0.849715 19.4946 0.77439 19.8602 0.80202C20.2257 0.829651 20.5744 0.958994 20.8619 1.17366C21.1495 1.38833 21.363 1.67866 21.4754 2.00787C21.5878 2.33708 21.5941 2.69035 21.4934 3.02292C21.3927 3.35549 21.1896 3.6524 20.9099 3.87601C20.6301 4.09963 20.2862 4.2399 19.9218 4.27905C19.4353 4.3311 18.9466 4.19942 18.5627 3.91277C18.1787 3.62613 17.9306 3.20783 17.8727 2.74925ZM20.0827 0H19.3796C19.1803 0.0926354 18.8485 0.11689 18.6247 0.216247C18.24 0.376921 17.9004 0.62012 17.633 0.926462C17.3656 1.2328 17.1777 1.59382 17.0844 1.98073C16.9911 2.36765 16.995 2.76976 17.0956 3.15504C17.1962 3.54031 17.3909 3.89809 17.6641 4.19986C17.8169 4.35474 17.7952 4.28256 17.7918 4.55053C17.7639 7.04847 17.8088 9.55313 17.7902 12.0517H21.6373C21.6599 9.56775 21.6646 7.05461 21.6373 4.58326C21.6314 4.05346 21.9657 4.24895 22.2855 3.32055C22.4487 2.84377 22.458 2.332 22.3123 1.85022C22.1665 1.36843 21.8723 0.938348 21.4669 0.61455C21.1874 0.37859 20.8542 0.206413 20.4929 0.111338L20.0842 0.00204558L20.0827 0ZM5.12773 41.2853C5.59253 41.6517 6.05734 42.0743 6.50107 42.472L9.4656 45.0489C9.89569 45.4477 10.6329 46.0255 11.0617 46.4223C11.1519 46.5056 11.1897 46.5524 11.2805 46.6269C11.9201 47.1432 12.4689 47.6923 13.1168 48.2145L14.4802 49.3951C14.9831 49.8504 15.5319 50.3595 16.0606 50.7785C16.4603 51.0956 16.8207 51.4506 17.2071 51.7826L17.8984 52.3653C18.2197 52.6575 19.594 53.8098 19.6922 53.9433C19.8388 53.8872 21.2453 52.6213 21.5493 52.3653L22.9248 51.1672C23.3747 50.7288 24.3369 49.9775 24.7502 49.5719L27.4889 47.192C27.9596 46.8148 28.3766 46.3861 28.8523 46.0114L33.6466 41.8426C33.7278 41.7733 33.7795 41.707 33.8635 41.638L34.3311 41.242V31.2687L33.4387 31.2713C33.4601 34.3189 33.4204 37.3727 33.4387 40.4206C33.4402 40.681 33.4867 40.7175 33.3222 40.8423C33.0104 41.0778 32.7334 41.3715 32.43 41.6129L31.8317 42.1237C31.7111 42.235 31.6591 42.2908 31.5407 42.3867C31.1314 42.7163 30.7642 43.095 30.3595 43.4206C29.8079 43.8648 29.0779 44.5693 28.5799 44.9659L24.7301 48.3191C24.1813 48.7575 23.4702 49.4471 22.9493 49.863L19.7152 52.6683C19.4982 52.5298 18.3412 51.453 17.9858 51.1751C17.6883 50.9413 17.428 50.6695 17.1327 50.4316L15.4207 48.9457C15.2657 48.8209 15.1399 48.69 14.985 48.5658C14.2478 47.9784 13.5968 47.2975 12.859 46.7154C12.704 46.5924 12.5801 46.458 12.4252 46.3355C11.6843 45.7528 11.0388 45.0681 10.2976 44.4869C9.84797 44.1345 9.45196 43.7219 9.0073 43.3651L8.1533 42.6219C8.00425 42.5015 7.88557 42.3773 7.73559 42.2578C7.57663 42.1313 7.45888 42.01 7.29867 41.8797L6.44622 41.1357C6.30678 41.0255 6.15525 40.8896 6.02232 40.7669L6.00993 31.3037H5.1302L5.12835 41.2853H5.12773ZM19.6848 55.9988C19.472 55.7837 19.2443 55.5822 19.0031 55.3957L17.2969 53.9074C17.1937 53.8238 17.054 53.6832 16.9524 53.6008C16.4876 53.2247 16.0537 52.7908 15.5908 52.4194C15.469 52.3215 15.3844 52.2268 15.2642 52.1271L14.558 51.5275C14.087 51.0722 13.3613 50.4609 12.85 50.0412C12.1509 49.4676 11.5045 48.8139 10.798 48.2481C10.2093 47.7771 9.66453 47.2125 9.07454 46.7449C8.93913 46.6377 8.86414 46.557 8.72903 46.4393L7.36808 45.2578C6.89336 44.8861 6.45707 44.4331 5.98978 44.0597L4.1191 42.4416C4.05155 42.3794 4.02614 42.3382 3.95642 42.2806C3.61246 41.9957 3.70387 42.1114 3.70387 41.2388C3.70387 37.9227 3.72495 34.6003 3.70387 31.2848H4.59692C4.55602 34.6062 4.62791 37.9475 4.59537 41.271C4.59289 41.5465 4.58143 41.5632 4.75526 41.716L6.38797 43.1167C6.50727 43.2175 6.59062 43.3087 6.71581 43.4089C7.12546 43.7338 7.87224 44.4527 8.31226 44.8095L10.2725 46.5015C10.3314 46.5532 10.3602 46.5941 10.4178 46.6476L11.5789 47.6412C11.7047 47.7505 11.7791 47.8323 11.9046 47.9334L15.1458 50.7546C15.2451 50.8511 15.3507 50.9416 15.4622 51.0254L19.0359 54.1333C19.2385 54.3445 19.4623 54.5366 19.7043 54.7069C19.9366 54.5369 20.1549 54.3506 20.3572 54.1493C20.5995 53.9071 21.6478 53.052 21.9862 52.7467L29.4398 46.2525C29.8832 45.8919 30.3074 45.4746 30.749 45.1164L31.7127 44.2864C31.8366 44.1885 31.9163 44.0924 32.0405 43.9963C32.3746 43.7379 32.6835 43.4159 33.0213 43.1509C33.4622 42.8046 33.8731 42.3826 34.3131 42.0305C34.4318 41.9352 34.5192 41.8335 34.6394 41.7382C34.9338 41.5045 34.8449 41.5191 34.8449 40.7362C34.8449 37.5904 34.8055 34.4224 34.8449 31.2798H35.736V42.0319C35.517 42.2719 35.2772 42.4943 35.019 42.6967L31.0186 46.1611C30.9219 46.2388 30.8575 46.3177 30.7642 46.3948L29.7463 47.2692C29.0884 47.7952 28.3996 48.4609 27.747 49.0173C27.6574 49.0935 27.5793 49.1435 27.4907 49.2192L26.747 49.8752C26.6494 49.953 26.607 50.005 26.5097 50.0924L25.0012 51.3893C24.9049 51.467 24.8435 51.5438 24.7478 51.623L23.4931 52.7154C23.402 52.7917 23.3304 52.8419 23.2374 52.9182C22.5697 53.4635 21.9186 54.1219 21.2382 54.6657C20.7622 55.0456 20.3352 55.4816 19.8565 55.8591C19.7992 55.8945 19.7524 55.943 19.7204 56L19.6848 55.9988ZM19.7489 43.7742C19.5374 43.6347 19.3415 43.4753 19.1642 43.2984L16.4516 40.9574C16.3013 40.8095 15.984 40.6263 15.9673 40.4218C15.9447 40.1351 15.9688 39.7388 15.9688 39.4396V15.857H20.3411C20.2082 16.0388 19.5915 16.4482 19.5354 16.5917V17.6145L19.8276 17.374C19.9193 17.3027 20.0057 17.2258 20.0864 17.1437L21.4294 15.9774C21.5753 15.8547 21.5573 15.857 21.8148 15.857H22.7953C22.693 16.0239 21.5961 16.9225 21.3314 17.1478L20.3278 18.0323C20.2122 18.1419 19.5348 18.6384 19.5348 18.772L19.5423 19.7459L21.4991 18.0624C21.883 17.6884 22.3196 17.3611 22.72 17.0017C22.9525 16.7775 23.199 16.5667 23.4581 16.3702V16.7179C23.4581 17.4163 23.5665 17.3459 23.221 17.6349C23.1312 17.71 23.0776 17.781 22.9861 17.8544L21.0101 19.5621C20.804 19.7737 20.5159 19.9905 20.2726 20.1951C20.0411 20.4193 19.7958 20.6305 19.5379 20.8275L19.5357 21.8745C19.8805 21.6101 20.2101 21.3285 20.523 21.0309L22.4829 19.3389C22.5759 19.2644 22.6267 19.1951 22.7175 19.1194C22.8083 19.0437 22.8854 18.9923 22.9728 18.9163L23.4438 18.5005C23.47 18.8416 23.4722 19.1839 23.4503 19.5253C23.4169 19.6483 21.9676 20.864 21.7817 21.0177C21.6707 21.1095 21.6051 21.1916 21.4916 21.2807C21.3919 21.3544 21.2987 21.4355 21.2128 21.5233C21.122 21.6069 21.0265 21.6859 20.9268 21.76L19.5323 22.9601L19.5432 24.0098C19.6222 23.9394 19.6959 23.8847 19.7858 23.8123L23.2058 20.8438C23.275 20.7605 23.3596 20.6897 23.4556 20.6349V21.7161C23.1395 21.9277 22.5604 22.4897 22.2347 22.7722C22.1448 22.85 22.0705 22.9008 21.9803 22.9768C21.6667 23.2398 19.7344 24.9779 19.5364 25.094V26.1419L22.971 23.1825C23.0618 23.1095 23.1154 23.0431 23.2074 22.9648C23.2945 22.8909 23.3695 22.8383 23.4469 22.7678C23.4779 22.9882 23.5089 23.7424 23.4073 23.8804C23.3092 23.9779 23.2023 24.0673 23.0878 24.1474C22.9737 24.2395 22.8978 24.3327 22.7801 24.4251C22.6561 24.5235 22.5749 24.6153 22.4522 24.7173C22.3398 24.8003 22.2326 24.8893 22.1312 24.9841L21.5065 25.5323C21.0637 25.8856 20.6683 26.2836 20.2308 26.636L19.5801 27.1913C19.5129 27.5482 19.5018 27.9125 19.5472 28.2725L21.4951 26.5942C21.588 26.5203 21.6391 26.4481 21.7293 26.3745C21.9861 26.1753 22.2318 25.9637 22.4653 25.7404C22.5426 25.6653 22.6255 25.5953 22.7132 25.5311C22.8142 25.4516 22.852 25.4037 22.9511 25.3137C23.0373 25.2354 23.1138 25.1866 23.204 25.1092C23.3143 25.0139 23.3279 24.963 23.4565 24.8961L23.4516 25.9812C23.1005 26.2149 22.8008 26.5519 22.468 26.8187C22.3751 26.8929 22.3249 26.9619 22.2319 27.037C21.6602 27.499 21.0563 28.0954 20.5214 28.5209C20.2023 28.7748 19.8707 29.1454 19.5348 29.3578L19.5379 30.4054C19.6328 30.3501 19.7167 30.2796 19.7858 30.1971L23.4537 27.0288C23.4813 28.3365 23.5414 27.9584 22.9552 28.5378L20.3752 30.7815C20.2202 30.913 19.577 31.4019 19.5426 31.5445C19.5202 31.8755 19.5234 32.2076 19.5522 32.5381C19.7797 32.3189 20.0205 32.1123 20.2732 31.9192L22.469 30.0089C22.7761 29.7041 23.1069 29.4214 23.4587 29.1632L23.4528 30.2468C23.2359 30.3742 22.4993 31.0869 22.2298 31.3008C22.1396 31.3721 22.0593 31.4282 21.9766 31.5054L20.0272 33.2061C19.85 33.3464 19.7198 33.5036 19.5361 33.6217L19.5392 34.6693C19.8047 34.482 20.0504 34.2709 20.2729 34.039L20.761 33.6147C21.5214 33.0092 22.204 32.3189 22.9638 31.7094C23.1346 31.5723 23.2842 31.4221 23.4568 31.2924V32.3777L22.4634 33.2292C21.8728 33.7032 21.3414 34.24 20.7514 34.7117C20.6641 34.7765 20.582 34.8472 20.5056 34.9232C20.3507 35.0828 20.2038 35.1787 20.0219 35.3511C19.3771 35.9621 19.5339 35.4887 19.5351 36.8002C20.1911 36.3034 20.8555 35.6164 21.5053 35.1053L21.9964 34.6836C22.3351 34.413 23.1628 33.5954 23.4562 33.4271V34.3218C23.4562 34.5618 23.4119 34.5133 23.2842 34.6366L22.5319 35.2865C22.0172 35.7082 21.5558 36.1751 21.0417 36.5971L20.531 37.0328C20.2069 37.2938 19.8701 37.6538 19.5333 37.8832L19.5376 38.9326C19.8118 38.7537 20.4629 38.1453 20.7573 37.8788C20.8434 37.8005 20.9243 37.7526 21.011 37.6743L23.4553 35.5583V36.6395L20.9723 38.7745C20.7926 38.9563 20.6776 39.0276 20.4914 39.2055C19.3783 40.2713 19.5348 39.5816 19.5351 41.0614C19.7141 40.9343 19.8822 40.794 20.0377 40.6418C20.1927 40.4846 20.3386 40.3864 20.5208 40.2137L21.0113 39.7914C21.1824 39.6547 21.3305 39.5062 21.5028 39.3692L23.393 37.7345C23.4435 37.6944 23.3896 37.7277 23.4587 37.6892C23.4531 39.0185 23.6096 38.5875 22.9517 39.1865C22.8504 39.2786 22.8201 39.3239 22.7156 39.4048L21.7144 40.2628C21.2093 40.6763 20.739 41.136 20.2395 41.5571C20.1102 41.6661 19.5364 42.1003 19.5367 42.2216L19.5447 43.1926C19.8732 42.9635 20.4226 42.4302 20.7563 42.1406C20.8462 42.0626 20.9206 42.0132 21.0107 41.9361C21.1009 41.8589 21.1539 41.79 21.2475 41.7178L22.7209 40.451C22.9492 40.2235 23.1955 40.0126 23.4578 39.8204L23.4562 40.5509C23.3087 40.6447 19.8927 43.6076 19.7489 43.7742ZM15.0767 41.0533L15.0786 15.0744L24.3502 15.0838C24.4004 17.9298 24.3502 20.8187 24.3502 23.67C24.3502 29.3812 24.3849 35.1626 24.3527 40.8636C24.3587 40.9324 24.344 41.0014 24.3101 41.0625C24.2762 41.1237 24.2245 41.1745 24.1612 41.209L22.3776 42.7505C22.2536 42.8466 22.2071 42.8998 22.085 43.0115L20.892 44.036C20.7992 44.1281 20.6993 44.2136 20.593 44.2917C20.3631 44.4752 19.9785 44.8589 19.7145 45.0497L15.363 41.2894C15.2809 41.1974 15.1844 41.1178 15.0767 41.0533ZM10.0193 25.6162L10.1833 25.6217C10.1345 26.7423 9.62819 27.8016 8.77025 28.5782C7.9123 29.3548 6.76917 29.7884 5.57998 29.7884C4.39079 29.7884 3.24766 29.3548 2.38972 28.5782C1.53177 27.8016 1.02546 26.7423 0.97671 25.6217L1.17286 25.6176H10.0193V25.6162ZM34.3646 16.3819L38.3634 24.7597L34.3503 24.755L34.3646 16.3819ZM33.4384 16.3819V24.7576L29.4135 24.7494L33.4371 16.3816L33.4384 16.3819ZM6.05021 16.317L10.0785 24.7591L6.03502 24.7521L6.04959 16.317H6.05021ZM5.1237 16.3366V24.7576L1.07711 24.7518L5.12494 16.3357L5.1237 16.3366ZM33.796 13.0812C34.4795 12.921 34.641 13.9111 34.033 14.0514C33.8966 14.081 33.7533 14.0583 33.6346 13.9883C33.5159 13.9183 33.4315 13.8067 33.4001 13.678C33.3687 13.5494 33.3927 13.4142 33.4669 13.3023C33.5412 13.1904 33.6595 13.1108 33.796 13.0812ZM5.47943 13.0797C6.13015 12.926 6.38239 13.8909 5.71772 14.0502C5.64898 14.0682 5.5771 14.0728 5.5064 14.0639C5.43571 14.055 5.36766 14.0327 5.30635 13.9983C5.24504 13.9639 5.19174 13.9182 5.14967 13.8639C5.10759 13.8095 5.0776 13.7478 5.06151 13.6822C5.04542 13.6167 5.04356 13.5488 5.05604 13.4825C5.06852 13.4163 5.09508 13.3532 5.13412 13.2969C5.17317 13.2406 5.22389 13.1923 5.28323 13.155C5.34258 13.1177 5.40931 13.0921 5.47943 13.0797ZM0.0012388 24.7722V25.9046C0.122088 26.16 0.0687912 26.7599 0.520581 27.6699C0.883069 28.3988 1.41722 29.0401 2.08233 29.5448C2.30757 29.7172 2.54762 29.8717 2.79998 30.0066C3.34573 30.3039 3.94144 30.511 4.56128 30.6188C5.33976 30.7553 6.14012 30.7339 6.90919 30.5562C7.67825 30.3785 8.39841 30.0485 9.0218 29.5881C9.64519 29.1277 10.1575 28.5474 10.5248 27.8859C10.8921 27.2243 11.1058 26.4966 11.1519 25.7512L11.102 24.7389C10.9688 24.5571 8.10464 18.4973 7.72103 17.7179L6.60798 15.3857C6.49053 15.1422 6.32227 14.8424 6.23613 14.6016C6.37526 14.4619 6.44529 14.4684 6.57699 14.2922C6.66757 14.1633 6.74438 14.0262 6.80629 13.883H32.6714C32.8958 14.3073 32.8883 14.362 33.2695 14.599C33.1486 14.9637 32.8416 15.4876 32.6705 15.8623L28.6794 24.2018C28.6037 24.3864 28.511 24.5643 28.4024 24.7337L28.3856 24.7491C28.3348 24.8006 28.3615 24.7424 28.3237 24.8076C28.3128 25.7404 28.3171 26.3403 28.623 27.1717C28.894 27.9089 29.3354 28.5801 29.9155 29.1365C30.4955 29.6929 31.1995 30.1207 31.9765 30.3888C32.7535 30.6569 33.584 30.7586 34.4078 30.6866C35.2317 30.6146 36.0282 30.3706 36.7397 29.9724C37.9246 29.3034 38.8085 28.2482 39.2243 27.0063C39.3138 26.7433 39.4102 26.0364 39.474 25.9037V24.7599C39.324 24.7424 39.3907 24.7892 39.3163 24.641L34.5186 14.5952C34.6919 14.5014 34.839 14.37 34.9477 14.2119C35.0565 14.0538 35.1236 13.8735 35.1437 13.686C35.1637 13.4985 35.1361 13.3092 35.063 13.1338C34.99 12.9584 34.8736 12.8019 34.7236 12.6774C34.5736 12.5529 34.3943 12.4639 34.2006 12.4178C34.0068 12.3717 33.8042 12.3699 33.6095 12.4124C33.4148 12.4549 33.2337 12.5406 33.0812 12.6624C32.9287 12.7841 32.8091 12.9384 32.7325 13.1124L6.74215 13.1104C6.62315 12.8443 6.40545 12.6282 6.12977 12.5026C5.85408 12.3769 5.5393 12.3502 5.24427 12.4275C4.94924 12.5048 4.69418 12.6808 4.52679 12.9227C4.3594 13.1645 4.29113 13.4555 4.33477 13.7413C4.4141 14.2545 4.70413 14.3927 4.9291 14.601C4.8507 14.8182 4.72149 15.0476 4.61923 15.26C4.51697 15.4724 4.42432 15.6808 4.31804 15.8918C3.70852 17.1031 3.08228 18.4941 2.48485 19.7264C2.07706 20.5671 1.65749 21.4213 1.26396 22.2725L0.345816 24.1863C0.24077 24.4125 0.14223 24.7059 0 24.7719L0.0012388 24.7722Z" fill="#FEFEFE"/>
</g>
</svg>
