<svg width="16" height="16" viewBox="0 0 16 16" fill="none" xmlns="http://www.w3.org/2000/svg">
<rect width="16" height="16" fill="#0B0C0C"/>
<path fill-rule="evenodd" clip-rule="evenodd" d="M10.866 8.38389C10.6253 8.38288 10.3944 8.28931 10.2212 8.12267C10.048 7.95604 9.94607 7.7292 9.93652 7.48943H11.8021C11.7927 7.73035 11.6899 7.95824 11.5154 8.12509C11.3409 8.29195 11.1082 8.38475 10.8664 8.38395L10.866 8.38389ZM6.54867 4.76109L9.44192 4.76284V4.62051H6.54873L6.54867 4.76109ZM6.54867 5.03392V5.1668H9.44192V5.02466H6.54885L6.54867 5.03392ZM8.22102 4.27109L8.22215 4.41668L8.06157 4.41869L8.22102 4.27109ZM7.76855 4.41937C7.84278 4.41906 7.81716 4.40735 7.90765 4.33246L8.19075 4.07302C8.21851 4.04478 8.22215 4.0461 8.22215 3.99788V3.8156L7.94584 4.06551C7.75913 4.25569 7.76792 4.13608 7.76855 4.41937ZM7.76855 3.99895C7.76855 3.95342 7.76855 3.90796 7.76824 3.86243C7.76824 3.76851 7.74651 3.78322 7.86193 3.68434L8.22071 3.35797L8.22197 3.5509C8.22197 3.60231 8.2003 3.60795 8.12544 3.67614L7.76855 3.99895ZM7.77106 3.54182C7.79097 3.52266 7.81383 3.50701 7.83386 3.48684C7.86043 3.46035 7.87098 3.45021 7.89698 3.42804L8.14397 3.20029C8.16595 3.18195 8.18636 3.16197 8.20721 3.14149C8.23044 3.11876 8.22159 3.08752 8.22178 3.04506C8.17575 3.05314 8.13172 3.07812 8.06917 3.08583C8.02339 3.09152 8.02013 3.08282 7.99023 3.10806L7.88762 3.20199C7.79455 3.2879 7.7683 3.28821 7.7683 3.36774L7.77106 3.54182ZM7.62217 2.58913C7.61341 2.51553 7.62675 2.441 7.66051 2.37497C7.69427 2.30895 7.74693 2.2544 7.81181 2.21824C7.87669 2.18208 7.95087 2.16594 8.02496 2.17186C8.09905 2.17778 8.1697 2.2055 8.22798 2.2515C8.28626 2.2975 8.32953 2.35971 8.35231 2.43026C8.37509 2.5008 8.37636 2.5765 8.35596 2.64777C8.33556 2.71903 8.2944 2.78266 8.2377 2.83057C8.181 2.87849 8.11131 2.90855 8.03746 2.91694C7.93885 2.92809 7.83981 2.89987 7.762 2.83845C7.68418 2.77703 7.63391 2.68739 7.62217 2.58913ZM8.07005 2H7.92756C7.88718 2.01985 7.81992 2.02505 7.77458 2.04634C7.69661 2.08077 7.62779 2.13288 7.57359 2.19853C7.5194 2.26417 7.48133 2.34153 7.46242 2.42444C7.44351 2.50735 7.44428 2.59352 7.46468 2.67608C7.48508 2.75864 7.52453 2.83531 7.5799 2.89997C7.61086 2.93316 7.60647 2.91769 7.60577 2.97511C7.60012 3.51039 7.60923 4.0471 7.60546 4.5825H8.38512C8.3897 4.05023 8.39065 3.5117 8.38512 2.98213C8.38393 2.8686 8.45169 2.91049 8.5165 2.71155C8.54957 2.60938 8.55146 2.49972 8.52192 2.39648C8.49238 2.29324 8.43274 2.20107 8.35058 2.13169C8.29395 2.08113 8.22642 2.04423 8.1532 2.02386L8.07037 2.00044L8.07005 2ZM5.03921 10.8468C5.13341 10.9254 5.22761 11.0159 5.31754 11.1011L5.91834 11.6533C6.00551 11.7388 6.15491 11.8626 6.24183 11.9476C6.2601 11.9655 6.26776 11.9755 6.28616 11.9915C6.41578 12.1021 6.527 12.2198 6.65831 12.3317L6.93463 12.5847C7.03656 12.6822 7.14778 12.7913 7.25491 12.8811C7.33592 12.9491 7.40896 13.0251 7.48727 13.0963L7.62738 13.2211C7.6925 13.2838 7.97102 13.5307 7.99093 13.5593C8.02063 13.5473 8.30568 13.276 8.36729 13.2211L8.64605 12.9644C8.73724 12.8705 8.93223 12.7095 9.01601 12.6226L9.57103 12.1126C9.66642 12.0317 9.75095 11.9399 9.84735 11.8596L10.819 10.9663C10.8354 10.9514 10.8459 10.9372 10.8629 10.9224L10.9577 10.8376V8.70043L10.7768 8.701C10.7812 9.35406 10.7731 10.0084 10.7768 10.6616C10.7772 10.7174 10.7866 10.7252 10.7532 10.7519C10.6901 10.8024 10.6339 10.8653 10.5724 10.917L10.4512 11.0265C10.4267 11.0504 10.4162 11.0623 10.3922 11.0829C10.3092 11.1535 10.2348 11.2347 10.1528 11.3044C10.041 11.3996 9.89307 11.5506 9.79215 11.6355L9.01192 12.3541C8.90071 12.448 8.75658 12.5958 8.65101 12.6849L7.99557 13.2861C7.95161 13.2564 7.71712 13.0256 7.64509 12.9661C7.5848 12.916 7.53205 12.8578 7.4722 12.8068L7.12523 12.4884C7.09383 12.4616 7.06833 12.4336 7.03693 12.407C6.88753 12.2811 6.75559 12.1352 6.60607 12.0104C6.57467 11.9841 6.54955 11.9553 6.51815 11.929C6.36799 11.8042 6.23718 11.6575 6.08696 11.5329C5.99584 11.4574 5.91558 11.369 5.82546 11.2925L5.65239 11.1333C5.62218 11.1075 5.59813 11.0809 5.56773 11.0552C5.53552 11.0281 5.51165 11.0021 5.47919 10.9742L5.30642 10.8148C5.27816 10.7912 5.24745 10.7621 5.22051 10.7358L5.218 8.70795H5.03971L5.03921 10.8468ZM7.98942 13.9997C7.9463 13.9537 7.90014 13.9105 7.85126 13.8705L7.50548 13.5516C7.48457 13.5337 7.45625 13.5036 7.43565 13.4859C7.34145 13.4053 7.25353 13.3123 7.15971 13.2327C7.13503 13.2117 7.11788 13.1915 7.09352 13.1701L6.9504 13.0416C6.85494 12.944 6.70786 12.813 6.60424 12.7231C6.46257 12.6002 6.33157 12.4601 6.18838 12.3389C6.06906 12.2379 5.95866 12.117 5.83909 12.0168C5.81165 11.9938 5.79645 11.9765 5.76907 11.9513L5.49325 11.6981C5.39704 11.6184 5.30862 11.5214 5.21392 11.4414L4.8348 11.0946C4.82111 11.0813 4.81596 11.0725 4.80183 11.0601C4.73212 10.9991 4.75065 11.0239 4.75065 10.8369C4.75065 10.1263 4.75492 9.41436 4.75065 8.70388H4.93163C4.92335 9.41561 4.93791 10.1316 4.93132 10.8438C4.93082 10.9028 4.92849 10.9064 4.96373 10.9391L5.29462 11.2393C5.3188 11.2609 5.33569 11.2804 5.36106 11.3019C5.44408 11.3715 5.59543 11.5256 5.6846 11.602L6.08188 11.9646C6.09381 11.9757 6.09965 11.9845 6.11133 11.9959L6.34664 12.2088C6.37214 12.2322 6.38721 12.2498 6.41264 12.2714L7.06953 12.876C7.08964 12.8967 7.11106 12.9161 7.13365 12.934L7.85792 13.6C7.89896 13.6452 7.94433 13.6864 7.99337 13.7229C8.04046 13.6865 8.08469 13.6465 8.12569 13.6034C8.1748 13.5515 8.38725 13.3683 8.45583 13.3029L9.96642 11.9113C10.0563 11.834 10.1423 11.7446 10.2317 11.6678L10.4271 11.49C10.4522 11.469 10.4683 11.4484 10.4935 11.4278C10.5612 11.3724 10.6238 11.3034 10.6923 11.2466C10.7816 11.1724 10.8649 11.082 10.9541 11.0065C10.9781 10.9861 10.9958 10.9643 11.0202 10.9439C11.0799 10.8938 11.0618 10.8969 11.0618 10.7292C11.0618 10.0551 11.0539 9.37622 11.0618 8.70281H11.2424V11.0068C11.1981 11.0583 11.1495 11.1059 11.0971 11.1493L10.2864 11.8917C10.2668 11.9083 10.2537 11.9252 10.2348 11.9418L10.0285 12.1291C9.8952 12.2418 9.7556 12.3845 9.62334 12.5037C9.60519 12.52 9.58937 12.5308 9.57141 12.547L9.42069 12.6876C9.40091 12.7042 9.3923 12.7154 9.37258 12.7341L9.06687 13.012C9.04734 13.0286 9.03491 13.0451 9.0155 13.0621L8.76123 13.2962C8.74276 13.3125 8.72826 13.3233 8.70942 13.3396C8.57408 13.4565 8.44214 13.5975 8.30423 13.7141C8.20777 13.7955 8.12123 13.8889 8.02421 13.9698C8.01261 13.9774 8.00312 13.9878 7.99664 14L7.98942 13.9997ZM8.00242 11.3802C7.95955 11.3503 7.91984 11.3161 7.88391 11.2782L7.33417 10.7766C7.30371 10.7449 7.2394 10.7056 7.23601 10.6618C7.23143 10.6004 7.23632 10.5155 7.23632 10.4513V5.39793H8.12243C8.09549 5.43688 7.97052 5.52461 7.95915 5.55536V5.77453L8.01837 5.72299C8.03694 5.70773 8.05445 5.69125 8.07081 5.67365L8.34298 5.42373C8.37256 5.39743 8.36892 5.39793 8.4211 5.39793H8.6198C8.59908 5.43369 8.37677 5.62624 8.32314 5.67452L8.11973 5.86407C8.0963 5.88756 7.95902 5.99395 7.95902 6.02256L7.96053 6.23128L8.35711 5.87052C8.43492 5.79037 8.52341 5.72024 8.60454 5.64321C8.65167 5.59519 8.70162 5.55 8.75413 5.50789V5.58241C8.75413 5.73207 8.77611 5.71698 8.70609 5.77891C8.68788 5.795 8.67701 5.81022 8.65849 5.82594L8.25801 6.19189C8.21625 6.23722 8.15785 6.28369 8.10855 6.32752C8.06163 6.37556 8.01191 6.42081 7.95965 6.46303L7.95921 6.6874C8.02909 6.63073 8.09587 6.57038 8.15929 6.50661L8.5565 6.14405C8.57534 6.12808 8.58564 6.11324 8.60404 6.09702C8.62244 6.0808 8.63808 6.06978 8.65579 6.0535L8.75124 5.96439C8.75654 6.03748 8.75698 6.11085 8.75256 6.184C8.74578 6.21036 8.45206 6.47086 8.41438 6.5038C8.3919 6.52346 8.37859 6.54105 8.3556 6.56015C8.33539 6.57593 8.31649 6.59332 8.29908 6.61213C8.28068 6.63005 8.26133 6.64698 8.24112 6.66285L7.95852 6.92003L7.96072 7.14496C7.97673 7.12987 7.99168 7.11816 8.00989 7.10263L8.70301 6.46654C8.71702 6.44867 8.73417 6.4335 8.75363 6.42176V6.65346C8.68957 6.69879 8.5722 6.81921 8.5062 6.87976C8.48799 6.89642 8.47291 6.90732 8.45464 6.9236C8.39109 6.97996 7.99947 7.35242 7.95934 7.37728V7.60183L8.65541 6.96768C8.67381 6.95203 8.68467 6.93781 8.70333 6.92103C8.72097 6.90519 8.73617 6.89392 8.75187 6.87883C8.75815 6.92604 8.76443 7.08766 8.74383 7.11722C8.72395 7.13813 8.70229 7.15728 8.67909 7.17445C8.65598 7.19418 8.64059 7.21415 8.61673 7.23394C8.59161 7.25504 8.57515 7.27471 8.55028 7.29656C8.5275 7.31434 8.50578 7.33343 8.48522 7.35373L8.35862 7.47121C8.26888 7.54691 8.18875 7.6322 8.10007 7.70772L7.96819 7.8267C7.95458 7.90319 7.95234 7.98125 7.96154 8.05839L8.35629 7.69877C8.37513 7.68292 8.3855 7.66746 8.40377 7.65168C8.45582 7.609 8.50561 7.56364 8.55292 7.51579C8.5686 7.4997 8.58539 7.48472 8.60316 7.47096C8.62363 7.45392 8.63129 7.44366 8.65139 7.42437C8.66885 7.40759 8.68436 7.39713 8.70264 7.38053C8.72499 7.36012 8.72776 7.34922 8.75382 7.33488L8.75281 7.56739C8.68166 7.61749 8.62093 7.68969 8.55349 7.74686C8.53465 7.76276 8.52447 7.77754 8.50563 7.79364C8.38977 7.89264 8.26737 8.02044 8.15898 8.11162C8.09429 8.16604 8.0271 8.24544 7.95902 8.29096L7.95965 8.51545C7.97888 8.5036 7.99588 8.48849 8.00989 8.47081L8.75325 7.79188C8.75884 8.07211 8.77102 7.99108 8.65221 8.11525L8.12934 8.59605C8.09794 8.62422 7.96756 8.72899 7.96059 8.75955C7.95607 8.83047 7.95672 8.90162 7.96254 8.97245C8.00866 8.92548 8.05745 8.8812 8.10868 8.83982L8.55367 8.43048C8.61591 8.36517 8.68296 8.30459 8.75426 8.24926L8.75306 8.48145C8.7091 8.50875 8.55983 8.66148 8.50519 8.70732C8.48692 8.7226 8.47065 8.73462 8.45389 8.75115L8.05881 9.1156C8.02289 9.14566 7.99651 9.17935 7.95927 9.20465L7.9599 9.42914C8.01372 9.38899 8.06352 9.34376 8.10861 9.29407L8.20752 9.20314C8.36163 9.0734 8.49998 8.92549 8.65396 8.79486C8.68857 8.76549 8.7189 8.73331 8.75388 8.7055V8.93807L8.55254 9.12055C8.43285 9.22212 8.32515 9.33715 8.20557 9.43822C8.18789 9.4521 8.17125 9.46726 8.15577 9.48355C8.12437 9.51774 8.09461 9.53828 8.05774 9.57523C7.92706 9.70617 7.95884 9.60472 7.95909 9.88576C8.09203 9.77931 8.22668 9.63209 8.35837 9.52257L8.4579 9.43221C8.52655 9.37422 8.69428 9.19901 8.75375 9.16294V9.35468C8.75375 9.40609 8.74477 9.3957 8.7189 9.42212L8.56642 9.56139C8.46211 9.65175 8.3686 9.75182 8.26442 9.84224L8.16092 9.93561C8.09524 9.99153 8.02697 10.0687 7.95871 10.1178L7.95959 10.3427C8.01517 10.3044 8.14711 10.174 8.20677 10.1169C8.22423 10.1001 8.24062 10.0898 8.2582 10.0731L8.75357 9.61963V9.85132L8.25035 10.3088C8.21393 10.3478 8.19063 10.363 8.15289 10.4012C7.92731 10.6296 7.95902 10.4818 7.95909 10.7989C7.99536 10.7716 8.02942 10.7416 8.06095 10.709C8.09235 10.6753 8.12193 10.6542 8.15885 10.6172L8.25826 10.5267C8.29293 10.4974 8.32295 10.4656 8.35786 10.4363L8.74094 10.086C8.75118 10.0774 8.74025 10.0845 8.75426 10.0763C8.75313 10.3611 8.78484 10.2687 8.65152 10.3971C8.63098 10.4168 8.62483 10.4265 8.60366 10.4439L8.40076 10.6277C8.29839 10.7163 8.20306 10.8148 8.10183 10.9051C8.07564 10.9284 7.95934 11.0215 7.9594 11.0475L7.96103 11.2556C8.0276 11.2065 8.13894 11.0922 8.20658 11.0301C8.22479 11.0134 8.23986 11.0028 8.25814 10.9863C8.27641 10.9698 8.28715 10.955 8.30612 10.9395L8.60473 10.6681C8.651 10.6193 8.70092 10.5741 8.75407 10.5329L8.75375 10.6895C8.72386 10.7096 8.03156 11.3445 8.00242 11.3802ZM7.05552 10.7971L7.0559 5.23024L8.93493 5.23224C8.94511 5.84209 8.93493 6.46115 8.93493 7.07213C8.93493 8.29597 8.94197 9.53484 8.93543 10.7565C8.93666 10.7712 8.93367 10.786 8.9268 10.7991C8.91993 10.8122 8.90946 10.8231 8.89662 10.8305L8.53515 11.1608C8.51003 11.1814 8.50061 11.1928 8.47587 11.2167L8.23409 11.4363C8.21527 11.456 8.19502 11.4743 8.17348 11.4911C8.12689 11.5304 8.04895 11.6126 7.99545 11.6535L7.11355 10.8477C7.0969 10.828 7.07734 10.8109 7.05552 10.7971ZM6.03057 7.48918L6.06379 7.49037C6.05391 7.73048 5.9513 7.95749 5.77742 8.1239C5.60355 8.29031 5.37187 8.38323 5.13087 8.38323C4.88986 8.38323 4.65819 8.29031 4.48431 8.1239C4.31044 7.95749 4.20783 7.73048 4.19794 7.49037L4.2377 7.48949H6.03057V7.48918ZM10.9645 5.5104L11.7749 7.30564L10.9616 7.30464L10.9645 5.5104ZM10.7768 5.5104V7.3052L9.96108 7.30345L10.7765 5.51033L10.7768 5.5104ZM5.22617 5.4965L6.04256 7.30552L5.22309 7.30401L5.22617 5.4965ZM5.03839 5.50069V7.3052L4.21829 7.30395L5.03865 5.5005L5.03839 5.50069ZM10.8493 4.80311C10.9878 4.76879 11.0205 4.98095 10.8973 5.01101C10.8697 5.01736 10.8406 5.0125 10.8165 4.9975C10.7925 4.98249 10.7754 4.95858 10.769 4.93101C10.7627 4.90344 10.7675 4.87448 10.7826 4.85049C10.7976 4.8265 10.8216 4.80946 10.8493 4.80311ZM5.11049 4.8028C5.24237 4.76986 5.29349 4.97663 5.15878 5.01076C5.14485 5.0146 5.13028 5.0156 5.11596 5.01369C5.10163 5.01178 5.08784 5.007 5.07541 4.99963C5.06299 4.99226 5.05218 4.98247 5.04366 4.97083C5.03513 4.95919 5.02905 4.94595 5.02579 4.93191C5.02253 4.91786 5.02215 4.90331 5.02468 4.88912C5.02721 4.87492 5.03259 4.86139 5.04051 4.84933C5.04842 4.83726 5.0587 4.82692 5.07073 4.81893C5.08275 4.81093 5.09628 4.80544 5.11049 4.8028ZM4.00025 7.30833V7.55098C4.02474 7.60571 4.01394 7.73427 4.1055 7.92927C4.17897 8.08547 4.28722 8.22288 4.42201 8.33104C4.46766 8.36798 4.51631 8.40107 4.56746 8.42998C4.67806 8.4937 4.79879 8.53807 4.92441 8.56117C5.08218 8.59041 5.24439 8.58584 5.40025 8.54776C5.55611 8.50968 5.70206 8.43896 5.8284 8.3403C5.95474 8.24164 6.05858 8.1173 6.13301 7.97554C6.20744 7.83378 6.25077 7.67785 6.2601 7.51811L6.24999 7.3012C6.22299 7.26225 5.64253 5.9637 5.56478 5.79669L5.33921 5.29693C5.3154 5.24476 5.2813 5.18052 5.26385 5.12892C5.29204 5.09899 5.30624 5.10036 5.33293 5.0626C5.35128 5.03498 5.36685 5.00562 5.3794 4.97494H10.6214C10.6668 5.06586 10.6653 5.07757 10.7426 5.12835C10.7181 5.2065 10.6558 5.31878 10.6212 5.39906L9.81231 7.1861C9.79697 7.22565 9.77818 7.26379 9.75616 7.30007L9.75277 7.30339C9.74247 7.31441 9.74788 7.30195 9.74021 7.31591C9.73802 7.51579 9.73889 7.64435 9.80088 7.8225C9.85579 7.98048 9.94527 8.1243 10.0628 8.24353C10.1804 8.36276 10.323 8.45443 10.4805 8.51188C10.638 8.56933 10.8063 8.59113 10.9733 8.57569C11.1402 8.56026 11.3017 8.50798 11.4459 8.42265C11.686 8.2793 11.8651 8.05318 11.9494 7.78706C11.9675 7.7307 11.9871 7.57923 12 7.5508V7.3057C11.9696 7.30195 11.9831 7.31197 11.968 7.28022L10.9957 5.12754C11.0308 5.10745 11.0607 5.07929 11.0827 5.04541C11.1047 5.01152 11.1183 4.97289 11.1224 4.93271C11.1265 4.89253 11.1209 4.85197 11.106 4.81438C11.0912 4.7768 11.0677 4.74327 11.0373 4.71659C11.0069 4.68991 10.9705 4.67084 10.9313 4.66096C10.892 4.65108 10.8509 4.65069 10.8115 4.6598C10.772 4.66891 10.7353 4.68728 10.7044 4.71336C10.6735 4.73945 10.6493 4.77252 10.6337 4.80981L5.3664 4.80937C5.34228 4.75235 5.29816 4.70605 5.24229 4.67912C5.18642 4.65219 5.12262 4.64647 5.06283 4.66304C5.00304 4.67961 4.95135 4.71732 4.91742 4.76914C4.8835 4.82095 4.86966 4.88332 4.87851 4.94457C4.89458 5.05453 4.95336 5.08415 4.99896 5.12879C4.98307 5.17532 4.95688 5.22448 4.93616 5.27C4.91543 5.31553 4.89665 5.36017 4.87511 5.40538C4.75159 5.66494 4.62467 5.96301 4.50359 6.22708C4.42095 6.40724 4.33592 6.59027 4.25616 6.77269L4.07008 7.18278C4.0488 7.23125 4.02883 7.29412 4 7.30827L4.00025 7.30833Z" fill="#FEFEFE"/>
</svg>
