<svg width="16" height="16" fill="none" xmlns="http://www.w3.org/2000/svg"><path fill="#0B0C0C" d="M0 0h16v16H0z"/><path d="M7.732 13.12a6.39 6.39 0 0 1-1.884-.276c-.6-.192-1.076-.436-1.428-.732l.54-1.212a4.37 4.37 0 0 0 1.248.66 4.525 4.525 0 0 0 1.524.264c.44 0 .796-.048 1.068-.144.272-.096.472-.224.6-.384a.908.908 0 0 0 .192-.564.753.753 0 0 0-.276-.612 1.912 1.912 0 0 0-.72-.372 9.838 9.838 0 0 0-.972-.264c-.352-.08-.708-.172-1.068-.276a5.088 5.088 0 0 1-.972-.42 2.18 2.18 0 0 1-.708-.696c-.184-.288-.276-.656-.276-1.104 0-.456.12-.872.36-1.248.248-.384.62-.688 1.116-.912.504-.232 1.14-.348 1.908-.348a5.98 5.98 0 0 1 1.5.192 4.34 4.34 0 0 1 1.296.552l-.492 1.212a4.462 4.462 0 0 0-1.164-.492 4.27 4.27 0 0 0-1.152-.168c-.432 0-.784.052-1.056.156-.264.104-.46.24-.588.408a.966.966 0 0 0-.18.576c0 .256.088.464.264.624.184.152.42.272.708.36.296.088.624.176.984.264.36.08.716.172 1.068.276.36.104.684.24.972.408.296.168.532.396.708.684.184.288.276.652.276 1.092 0 .448-.124.864-.372 1.248-.24.376-.612.68-1.116.912-.504.224-1.14.336-1.908.336z" fill="#FEFEFE"/></svg>