<svg width="12" height="16" viewBox="0 0 12 16" fill="none" xmlns="http://www.w3.org/2000/svg">
<path fill-rule="evenodd" clip-rule="evenodd" d="M10.2986 8.51185C9.9376 8.51051 9.59115 8.38575 9.33142 8.16357C9.07169 7.94138 8.91873 7.63893 8.90441 7.31924H11.7028C11.6887 7.64047 11.5345 7.94432 11.2727 8.16679C11.0109 8.38927 10.6613 8.51292 10.2986 8.51185ZM3.82262 3.68145L8.1625 3.68379V3.49401H3.82272L3.82262 3.68145ZM3.82262 4.04523V4.2224H8.1625V4.03288H3.8229L3.82262 4.04523ZM6.33116 3.02812L6.33285 3.22224L6.09199 3.22491L6.33116 3.02812ZM5.65245 3.22583C5.76379 3.22542 5.72536 3.2098 5.8611 3.10994L6.28576 2.76403C6.32739 2.72638 6.33285 2.72813 6.33285 2.66384V2.42079L5.91838 2.75401C5.63832 3.00758 5.65151 2.84811 5.65245 3.22583ZM5.65245 2.66526C5.65245 2.60456 5.65245 2.54395 5.65198 2.48325C5.65198 2.35801 5.61939 2.37763 5.79253 2.24579L6.33069 1.81063L6.33257 2.06787C6.33257 2.13642 6.30007 2.14393 6.18779 2.23485L5.65245 2.66526ZM5.65622 2.05576C5.68608 2.03021 5.72037 2.00934 5.75042 1.98246C5.79027 1.94714 5.80609 1.93361 5.84509 1.90406L6.21558 1.60039C6.24855 1.57593 6.27916 1.54929 6.31043 1.52199C6.34529 1.49168 6.33201 1.45002 6.33229 1.39341C6.26324 1.40418 6.19721 1.4375 6.10338 1.44777C6.03471 1.45537 6.02981 1.44376 5.98497 1.47741L5.83105 1.60265C5.69145 1.7172 5.65207 1.71762 5.65207 1.82365L5.65622 2.05576ZM5.43287 0.785501C5.41973 0.687374 5.43975 0.587997 5.49039 0.499962C5.54103 0.411928 5.62001 0.339197 5.71733 0.290987C5.81465 0.242776 5.92593 0.221254 6.03706 0.229149C6.14819 0.237043 6.25418 0.273998 6.34159 0.335332C6.42901 0.396666 6.49391 0.479618 6.52809 0.573677C6.56226 0.667737 6.56417 0.768671 6.53356 0.863691C6.50296 0.958712 6.44122 1.04354 6.35617 1.10743C6.27112 1.17132 6.16659 1.2114 6.05581 1.22259C5.90789 1.23746 5.75935 1.19983 5.64262 1.11794C5.5259 1.03604 5.45049 0.916522 5.43287 0.785501ZM6.1047 0H5.89096C5.83039 0.0264673 5.72951 0.0333972 5.66149 0.0617848C5.54454 0.107692 5.4413 0.177177 5.36001 0.264703C5.27872 0.352229 5.22161 0.455376 5.19325 0.565923C5.16489 0.676471 5.16605 0.791361 5.19665 0.90144C5.22724 1.01152 5.28642 1.11374 5.36947 1.19996C5.41592 1.24421 5.40932 1.22359 5.40829 1.30015C5.39981 2.01385 5.41347 2.72947 5.40781 3.44333H6.5773C6.58418 2.73364 6.58559 2.0156 6.5773 1.3095C6.57551 1.15813 6.67715 1.21399 6.77437 0.94873C6.82398 0.812505 6.82681 0.666287 6.7825 0.528634C6.73819 0.390981 6.64873 0.268099 6.52549 0.175586C6.44055 0.108169 6.33925 0.058975 6.22942 0.0318108L6.1047 0ZM1.55844 11.7958C1.69974 11.9005 1.84104 12.0212 1.97593 12.1349L2.87714 12.8711C3.00789 12.9851 3.23199 13.1501 3.36236 13.2635C3.38977 13.2873 3.40127 13.3007 3.42887 13.322C3.6233 13.4695 3.79012 13.6264 3.98709 13.7756L4.40157 14.1129C4.55446 14.243 4.72129 14.3884 4.88199 14.5081C5.00351 14.5987 5.11306 14.7002 5.23053 14.795L5.44069 14.9615C5.53837 15.045 5.95615 15.3742 5.98601 15.4124C6.03057 15.3963 6.45814 15.0347 6.55055 14.9615L6.9687 14.6192C7.10548 14.494 7.39797 14.2793 7.52363 14.1634L8.35617 13.4834C8.49926 13.3757 8.62605 13.2532 8.77065 13.1461L10.2281 11.955C10.2528 11.9352 10.2685 11.9163 10.294 11.8966L10.4362 11.7834V8.93391L10.1649 8.93466C10.1714 9.80541 10.1593 10.6779 10.1649 11.5487C10.1654 11.6231 10.1795 11.6336 10.1295 11.6692C10.0347 11.7365 9.9505 11.8204 9.85828 11.8894L9.67638 12.0353C9.63973 12.0671 9.62391 12.0831 9.58792 12.1105C9.46349 12.2047 9.35186 12.3129 9.22883 12.4059C9.06116 12.5328 8.83922 12.7341 8.68785 12.8474L7.51751 13.8055C7.35068 13.9307 7.13449 14.1278 6.97614 14.2466L5.99298 15.0481C5.92704 15.0085 5.5753 14.7009 5.46725 14.6214C5.37682 14.5547 5.2977 14.477 5.20792 14.409L4.68747 13.9845C4.64037 13.9488 4.60212 13.9114 4.55502 13.8759C4.33092 13.7081 4.13301 13.5136 3.90872 13.3473C3.86162 13.3121 3.82394 13.2737 3.77684 13.2387C3.55161 13.0722 3.35539 12.8766 3.13007 12.7105C2.99338 12.6099 2.873 12.492 2.73782 12.39L2.47821 12.1777C2.4329 12.1433 2.39682 12.1078 2.35122 12.0737C2.3029 12.0375 2.2671 12.0029 2.2184 11.9656L1.95926 11.753C1.91687 11.7216 1.87081 11.6827 1.83039 11.6477L1.82663 8.94393H1.55919L1.55844 11.7958ZM5.98375 15.9997C5.91907 15.9382 5.84983 15.8806 5.77651 15.8273L5.25785 15.4021C5.22648 15.3782 5.184 15.3381 5.1531 15.3145C5.0118 15.2071 4.87992 15.0831 4.73919 14.977C4.70216 14.949 4.67645 14.9219 4.6399 14.8935L4.42522 14.7221C4.28203 14.5921 4.06142 14.4174 3.90599 14.2975C3.69347 14.1336 3.49697 13.9468 3.2822 13.7852C3.10322 13.6506 2.93762 13.4893 2.75826 13.3557C2.7171 13.3251 2.6943 13.302 2.65323 13.2684L2.2395 12.9308C2.09519 12.8246 1.96256 12.6952 1.8205 12.5885L1.25182 12.1262C1.23128 12.1084 1.22356 12.0966 1.20236 12.0802C1.0978 11.9988 1.12559 12.0318 1.12559 11.7825C1.12559 10.835 1.132 9.88581 1.12559 8.9385H1.39708C1.38464 9.88748 1.4065 10.8421 1.3966 11.7917C1.39585 11.8704 1.39237 11.8752 1.44521 11.9189L1.94155 12.319C1.97782 12.3479 2.00316 12.3739 2.04121 12.4025C2.16574 12.4954 2.39277 12.7008 2.52653 12.8027L3.12244 13.2861C3.14033 13.3009 3.1491 13.3126 3.16662 13.3279L3.51958 13.6118C3.55783 13.643 3.58044 13.6664 3.61859 13.6953L4.60391 14.5013C4.63409 14.5289 4.66621 14.5547 4.70009 14.5787L5.7865 15.4666C5.84807 15.527 5.91612 15.5819 5.98969 15.6305C6.06031 15.582 6.12666 15.5287 6.18816 15.4712C6.26183 15.402 6.5805 15.1577 6.68337 15.0705L8.94925 13.215C9.08405 13.112 9.21301 12.9928 9.34724 12.8904L9.6402 12.6533C9.67788 12.6253 9.70209 12.5978 9.73987 12.5704C9.84141 12.4966 9.93533 12.4045 10.038 12.3288C10.1721 12.2299 10.297 12.1093 10.4307 12.0087C10.4668 11.9815 10.4934 11.9524 10.5299 11.9252C10.6194 11.8584 10.5924 11.8626 10.5924 11.6389C10.5924 10.7401 10.5804 9.83497 10.5924 8.93708H10.8633V12.0091C10.7967 12.0777 10.7238 12.1412 10.6453 12.1991L9.4292 13.1889C9.39981 13.2111 9.38021 13.2336 9.35186 13.2557L9.04241 13.5055C8.84243 13.6558 8.63302 13.846 8.43464 14.0049C8.40741 14.0267 8.38368 14.041 8.35673 14.0626L8.13065 14.2501C8.10098 14.2723 8.08808 14.2871 8.0585 14.3121L7.59993 14.6826C7.57064 14.7049 7.55199 14.7268 7.52288 14.7494L7.14146 15.0615C7.11377 15.0833 7.09201 15.0977 7.06375 15.1195C6.86075 15.2753 6.66284 15.4634 6.45597 15.6188C6.31128 15.7273 6.18148 15.8519 6.03594 15.9598C6.01854 15.9699 6.00431 15.9837 5.99458 16L5.98375 15.9997ZM6.00325 12.5069C5.93895 12.4671 5.87939 12.4215 5.8255 12.371L5.00087 11.7021C4.95519 11.6599 4.85872 11.6075 4.85364 11.5491C4.84676 11.4672 4.85411 11.354 4.85411 11.2685V4.53058H6.18327C6.14285 4.58251 5.9554 4.69948 5.93835 4.74048V5.0327L6.02718 4.96399C6.05503 4.94364 6.0813 4.92166 6.10583 4.8982L6.51409 4.56498C6.55846 4.52991 6.553 4.53058 6.63128 4.53058H6.92933C6.89824 4.57825 6.56477 4.83499 6.48433 4.89937L6.17922 5.1521C6.14408 5.18341 5.93816 5.32526 5.93816 5.36342L5.94042 5.6417L6.53529 5.1607C6.652 5.05383 6.78473 4.96031 6.90644 4.85762C6.97713 4.79358 7.05205 4.73333 7.13082 4.67719V4.77655C7.13082 4.9761 7.16379 4.95597 7.05876 5.03855C7.03144 5.06001 7.01514 5.08029 6.98735 5.10125L6.38664 5.58918C6.324 5.64963 6.23639 5.71158 6.16245 5.77003C6.09206 5.83409 6.01748 5.89442 5.9391 5.95071L5.93844 6.24986C6.04325 6.17431 6.14343 6.09385 6.23856 6.00882L6.83437 5.52539C6.86263 5.5041 6.87808 5.48432 6.90568 5.46269C6.93328 5.44107 6.95674 5.42637 6.9833 5.40466L7.12649 5.28585C7.13444 5.38331 7.1351 5.48113 7.12847 5.57866C7.11829 5.61381 6.67772 5.96114 6.6212 6.00506C6.58748 6.03128 6.56751 6.05474 6.53303 6.0802C6.50271 6.10125 6.47436 6.12442 6.44825 6.1495C6.42064 6.1734 6.39162 6.19597 6.3613 6.21713L5.9374 6.56004L5.9407 6.85995C5.96472 6.83982 5.98714 6.82421 6.01446 6.8035L7.05414 5.95538C7.07515 5.93156 7.10088 5.91134 7.13007 5.89569V6.20461C7.03398 6.26506 6.85792 6.42562 6.75892 6.50635C6.7316 6.52856 6.70899 6.54309 6.68158 6.5648C6.58625 6.63994 5.99882 7.13656 5.93863 7.1697V7.46911L6.98274 6.62358C7.01034 6.6027 7.02664 6.58375 7.05461 6.56138C7.08108 6.54025 7.10388 6.52522 7.12743 6.5051C7.13685 6.56805 7.14627 6.78355 7.11537 6.82296C7.08555 6.85084 7.05306 6.87637 7.01825 6.89927C6.98359 6.92557 6.96051 6.95221 6.92471 6.97859C6.88703 7.00673 6.86235 7.03294 6.82505 7.06208C6.79087 7.08579 6.75829 7.11124 6.72746 7.13831L6.53755 7.29494C6.40294 7.39589 6.28274 7.5096 6.14973 7.6103L5.95191 7.76893C5.93149 7.87091 5.92813 7.97501 5.94193 8.07786L6.53407 7.59836C6.56233 7.57723 6.57787 7.55661 6.60528 7.53557C6.68336 7.47866 6.75803 7.41819 6.829 7.35439C6.85252 7.33293 6.8777 7.31296 6.90436 7.29461C6.93507 7.2719 6.94656 7.25821 6.97671 7.23249C7.0029 7.21012 7.02616 7.19617 7.05358 7.17405C7.08711 7.14683 7.09126 7.1323 7.13035 7.11318L7.12884 7.42319C7.02211 7.48998 6.93102 7.58625 6.82985 7.66248C6.80159 7.68369 6.78633 7.70339 6.75807 7.72485C6.58427 7.85685 6.40068 8.02726 6.23809 8.14883C6.14106 8.22138 6.04027 8.32725 5.93816 8.38795L5.9391 8.68727C5.96794 8.67147 5.99344 8.65132 6.01446 8.62774L7.1295 7.72251C7.13789 8.09614 7.15616 7.9881 6.97793 8.15367L6.19363 8.79473C6.14653 8.8323 5.95097 8.97198 5.94051 9.01273C5.93373 9.10729 5.9347 9.20217 5.94343 9.2966C6.01261 9.23398 6.0858 9.17493 6.16264 9.11976L6.83013 8.57397C6.92349 8.48689 7.02406 8.40612 7.13101 8.33234L7.12922 8.64194C7.06328 8.67834 6.83937 8.88198 6.75741 8.94309C6.73 8.96347 6.7056 8.9795 6.68045 9.00154L6.08784 9.48747C6.03396 9.52754 5.9944 9.57246 5.93853 9.6062L5.93948 9.90552C6.0202 9.85199 6.0949 9.79168 6.16254 9.72542L6.31091 9.60419C6.54207 9.43119 6.74959 9.23398 6.98057 9.05982C7.03247 9.02066 7.07797 8.97774 7.13044 8.94067V9.25077L6.82844 9.49406C6.64889 9.62949 6.48734 9.78287 6.30799 9.91762C6.28146 9.93614 6.2565 9.95634 6.23329 9.97807C6.18619 10.0237 6.14154 10.051 6.08624 10.1003C5.89021 10.2749 5.93788 10.1396 5.93825 10.5143C6.13767 10.3724 6.33964 10.1761 6.53717 10.0301L6.68648 9.90961C6.78944 9.83229 7.04105 9.59868 7.13025 9.55059V9.80624C7.13025 9.87479 7.11679 9.86093 7.07797 9.89617L6.84926 10.0819C6.69279 10.2023 6.55253 10.3358 6.39625 10.4563L6.24101 10.5808C6.14248 10.6554 6.04008 10.7582 5.93769 10.8238L5.93901 11.1236C6.02237 11.0725 6.22029 10.8987 6.30978 10.8225C6.33596 10.8001 6.36055 10.7865 6.38693 10.7641L7.12997 10.1595V10.4684L6.37515 11.0784C6.32051 11.1304 6.28557 11.1507 6.22895 11.2016C5.89059 11.5061 5.93816 11.309 5.93825 11.7318C5.99267 11.6955 6.04376 11.6554 6.09104 11.6119C6.13814 11.567 6.18251 11.539 6.2379 11.4896L6.38702 11.369C6.43902 11.3299 6.48405 11.2875 6.53642 11.2483L7.11104 10.7813C7.12639 10.7698 7.11 10.7794 7.13101 10.7683C7.12931 11.1481 7.17688 11.025 6.9769 11.1962C6.94609 11.2225 6.93686 11.2354 6.90512 11.2585L6.60076 11.5037C6.44721 11.6218 6.30422 11.7531 6.15237 11.8734C6.11309 11.9046 5.93863 12.0287 5.93872 12.0633L5.94117 12.3408C6.04102 12.2753 6.20804 12.1229 6.30949 12.0402C6.33681 12.0179 6.35942 12.0038 6.38683 11.9817C6.41424 11.9597 6.43035 11.94 6.4588 11.9194L6.90672 11.5574C6.97612 11.4924 7.05101 11.4322 7.13073 11.3772L7.13025 11.586C7.08542 11.6128 6.04696 12.4593 6.00325 12.5069ZM4.58291 11.7295L4.58347 4.30698L7.40202 4.30965C7.41728 5.12279 7.40202 5.9482 7.40202 6.76284C7.40202 8.39463 7.41257 10.0465 7.40277 11.6753C7.40462 11.695 7.40013 11.7147 7.38982 11.7321C7.37951 11.7496 7.36382 11.7641 7.34456 11.774L6.80235 12.2144C6.76467 12.2419 6.75054 12.2571 6.71342 12.289L6.35075 12.5817C6.32253 12.608 6.29215 12.6324 6.25985 12.6548C6.18995 12.7072 6.07305 12.8168 5.99279 12.8714L4.66995 11.797C4.64498 11.7707 4.61563 11.7479 4.58291 11.7295ZM3.04548 7.31891L3.09531 7.32049C3.08049 7.64064 2.92657 7.94332 2.66576 8.1652C2.40494 8.38707 2.05743 8.51097 1.69592 8.51097C1.33441 8.51097 0.986905 8.38707 0.726091 8.1652C0.465277 7.94332 0.311362 7.64064 0.296541 7.32049L0.356169 7.31932L3.04548 7.31891ZM10.4464 4.68053L11.662 7.07419L10.442 7.07285L10.4464 4.68053ZM10.1648 4.68053V7.0736L8.94124 7.07127L10.1648 4.68053ZM1.83887 4.66199L3.06347 7.07402L1.83426 7.07202L1.83887 4.66199ZM1.55722 4.66759V7.0736L0.327061 7.07193L1.55722 4.66759ZM10.2735 3.73748C10.4813 3.69172 10.5304 3.9746 10.3456 4.01467C10.3041 4.02314 10.2605 4.01666 10.2244 3.99666C10.1884 3.97666 10.1627 3.94477 10.1532 3.90801C10.1436 3.87125 10.1509 3.83264 10.1735 3.80065C10.1961 3.76867 10.232 3.74595 10.2735 3.73748ZM1.66536 3.73706C1.86318 3.69314 1.93985 3.96884 1.7378 4.01434C1.7169 4.01947 1.69505 4.02081 1.67356 4.01826C1.65207 4.01571 1.63138 4.00933 1.61274 3.99951C1.5941 3.98968 1.5779 3.97662 1.56511 3.9611C1.55232 3.94558 1.5432 3.92793 1.53831 3.90921C1.53342 3.89049 1.53285 3.87108 1.53665 3.85216C1.54044 3.83323 1.54851 3.81519 1.56038 3.7991C1.57225 3.78302 1.58767 3.76923 1.60571 3.75857C1.62375 3.74791 1.64404 3.74059 1.66536 3.73706ZM0 7.07778V7.40131C0.0367379 7.47429 0.0205358 7.6457 0.157879 7.90569C0.268074 8.11396 0.430455 8.29717 0.632645 8.44139C0.70112 8.49064 0.774093 8.53476 0.850812 8.5733C1.01672 8.65827 1.19781 8.71743 1.38624 8.74822C1.6229 8.78722 1.86621 8.78113 2.1 8.73035C2.33379 8.67958 2.55272 8.58529 2.74223 8.45374C2.93174 8.32219 3.08749 8.1564 3.19914 7.96739C3.31079 7.77838 3.37577 7.57047 3.38977 7.35748L3.37461 7.06826C3.3341 7.01633 2.46342 5.28494 2.3468 5.06226L2.00843 4.3959C1.97273 4.32635 1.92158 4.24069 1.89539 4.17189C1.93769 4.13198 1.95898 4.13382 1.99901 4.08347C2.02655 4.04665 2.0499 4.00749 2.06872 3.96658H9.93166C9.99986 4.08781 9.9976 4.10343 10.1135 4.17114C10.0767 4.27534 9.98337 4.42504 9.93138 4.53208L8.71808 6.9148C8.69507 6.96753 8.66689 7.01838 8.63387 7.06676L8.62878 7.07118C8.61333 7.08588 8.62144 7.06926 8.60994 7.08788C8.60665 7.35439 8.60796 7.5258 8.70094 7.76334C8.78331 7.97398 8.91753 8.16573 9.09385 8.32471C9.27018 8.48368 9.4842 8.6059 9.7204 8.6825C9.95661 8.7591 10.2091 8.78817 10.4595 8.76759C10.71 8.74702 10.9521 8.67731 11.1684 8.56353C11.5286 8.3724 11.7973 8.07091 11.9237 7.71608C11.9509 7.64094 11.9802 7.43897 11.9996 7.40106V7.07427C11.954 7.06926 11.9743 7.08262 11.9517 7.04029L10.4932 4.17005C10.5459 4.14326 10.5906 4.10572 10.6236 4.06054C10.6567 4.01537 10.6771 3.96386 10.6832 3.91028C10.6893 3.85671 10.6809 3.80263 10.6587 3.75251C10.6365 3.7024 10.6011 3.6577 10.5555 3.62212C10.5099 3.58654 10.4554 3.56111 10.3965 3.54795C10.3376 3.53478 10.276 3.53425 10.2168 3.5464C10.1577 3.55855 10.1026 3.58303 10.0562 3.61782C10.0099 3.6526 9.97352 3.69669 9.95022 3.74641L2.04922 3.74583C2.01304 3.66981 1.94686 3.60807 1.86306 3.57216C1.77925 3.53625 1.68356 3.52863 1.59387 3.55072C1.50418 3.57281 1.42664 3.6231 1.37576 3.69219C1.32487 3.76127 1.30412 3.84442 1.31738 3.92609C1.3415 4.0727 1.42967 4.11219 1.49806 4.17172C1.47422 4.23376 1.43494 4.2993 1.40386 4.36C1.37277 4.4207 1.34461 4.48023 1.3123 4.54051C1.127 4.88659 0.936628 5.28402 0.755011 5.63611C0.631044 5.87632 0.503498 6.12037 0.383864 6.36358L0.104751 6.91038C0.072817 6.975 0.0432376 7.05891 0 7.07778Z" fill="#0B0C0C"/>
</svg>
